<svg width="329" height="44" viewBox="0 0 329 44" fill="none" xmlns="http://www.w3.org/2000/svg">
    <g opacity="0.5">
        <path d="M18.8159 14.5043H3.18392C2.80799 14.5043 2.50427 14.808 2.50427 15.1839V30.8159C2.50427 31.1918 2.80799 31.4955 3.18392 31.4955H18.8159C19.1918 31.4955 19.4955 31.1918 19.4955 30.8159V15.1839C19.4955 14.808 19.1918 14.5043 18.8159 14.5043ZM16.8534 19.4636H15.4962C14.4321 19.4636 14.2261 19.9691 14.2261 20.7124V22.35H16.7663L16.435 24.9135H14.2261V31.4955H11.5776V24.9157H9.36236V22.35H11.5776V20.4597C11.5776 18.2657 12.9178 17.07 14.876 17.07C15.8148 17.07 16.6197 17.14 16.8555 17.1719V19.4636H16.8534Z" fill="white"/>
    </g>
    <g opacity="0.5">
        <path d="M42 20.1362C40.423 20.1362 39.1361 21.4231 39.1361 23.0001C39.1361 24.577 40.423 25.8639 42 25.8639C43.5769 25.8639 44.8638 24.577 44.8638 23.0001C44.8638 21.4231 43.5769 20.1362 42 20.1362ZM50.5894 23.0001C50.5894 21.8141 50.6002 20.6389 50.5336 19.4551C50.467 18.0801 50.1533 16.8598 49.1478 15.8543C48.1402 14.8467 46.9221 14.5352 45.5471 14.4686C44.3611 14.402 43.1859 14.4127 42.0021 14.4127C40.8162 14.4127 39.641 14.402 38.4572 14.4686C37.0822 14.5352 35.8619 14.8489 34.8564 15.8543C33.8488 16.862 33.5373 18.0801 33.4707 19.4551C33.4041 20.6411 33.4148 21.8163 33.4148 23.0001C33.4148 24.1838 33.4041 25.3612 33.4707 26.545C33.5373 27.92 33.851 29.1403 34.8564 30.1458C35.864 31.1534 37.0822 31.4649 38.4572 31.5315C39.6431 31.5981 40.8183 31.5874 42.0021 31.5874C43.1881 31.5874 44.3633 31.5981 45.5471 31.5315C46.9221 31.4649 48.1424 31.1512 49.1478 30.1458C50.1555 29.1381 50.467 27.92 50.5336 26.545C50.6023 25.3612 50.5894 24.186 50.5894 23.0001ZM42 27.4065C39.5615 27.4065 37.5935 25.4385 37.5935 23.0001C37.5935 20.5616 39.5615 18.5936 42 18.5936C44.4385 18.5936 46.4064 20.5616 46.4064 23.0001C46.4064 25.4385 44.4385 27.4065 42 27.4065ZM46.5869 19.4422C46.0176 19.4422 45.5578 18.9825 45.5578 18.4131C45.5578 17.8438 46.0176 17.384 46.5869 17.384C47.1562 17.384 47.616 17.8438 47.616 18.4131C47.6162 18.5483 47.5897 18.6822 47.538 18.8072C47.4863 18.9321 47.4106 19.0456 47.315 19.1412C47.2194 19.2368 47.1059 19.3126 46.9809 19.3642C46.856 19.4159 46.7221 19.4424 46.5869 19.4422Z" fill="white"/>
    </g>
    <path opacity="0.6" d="M173.022 22.51C173.022 21.83 173.179 21.22 173.492 20.68C173.812 20.14 174.242 19.72 174.782 19.42C175.329 19.1133 175.926 18.96 176.572 18.96C177.312 18.96 177.969 19.1433 178.542 19.51C179.122 19.87 179.542 20.3833 179.802 21.05H178.432C178.252 20.6833 178.002 20.41 177.682 20.23C177.362 20.05 176.992 19.96 176.572 19.96C176.112 19.96 175.702 20.0633 175.342 20.27C174.982 20.4767 174.699 20.7733 174.492 21.16C174.292 21.5467 174.192 21.9967 174.192 22.51C174.192 23.0233 174.292 23.4733 174.492 23.86C174.699 24.2467 174.982 24.5467 175.342 24.76C175.702 24.9667 176.112 25.07 176.572 25.07C176.992 25.07 177.362 24.98 177.682 24.8C178.002 24.62 178.252 24.3467 178.432 23.98H179.802C179.542 24.6467 179.122 25.16 178.542 25.52C177.969 25.88 177.312 26.06 176.572 26.06C175.919 26.06 175.322 25.91 174.782 25.61C174.242 25.3033 173.812 24.88 173.492 24.34C173.179 23.8 173.022 23.19 173.022 22.51ZM183.527 26.09C183.007 26.09 182.537 25.9733 182.117 25.74C181.697 25.5 181.367 25.1667 181.127 24.74C180.887 24.3067 180.767 23.8067 180.767 23.24C180.767 22.68 180.89 22.1833 181.137 21.75C181.383 21.3167 181.72 20.9833 182.147 20.75C182.573 20.5167 183.05 20.4 183.577 20.4C184.103 20.4 184.58 20.5167 185.007 20.75C185.433 20.9833 185.77 21.3167 186.017 21.75C186.263 22.1833 186.387 22.68 186.387 23.24C186.387 23.8 186.26 24.2967 186.007 24.73C185.753 25.1633 185.407 25.5 184.967 25.74C184.533 25.9733 184.053 26.09 183.527 26.09ZM183.527 25.1C183.82 25.1 184.093 25.03 184.347 24.89C184.607 24.75 184.817 24.54 184.977 24.26C185.137 23.98 185.217 23.64 185.217 23.24C185.217 22.84 185.14 22.5033 184.987 22.23C184.833 21.95 184.63 21.74 184.377 21.6C184.123 21.46 183.85 21.39 183.557 21.39C183.263 21.39 182.99 21.46 182.737 21.6C182.49 21.74 182.293 21.95 182.147 22.23C182 22.5033 181.927 22.84 181.927 23.24C181.927 23.8333 182.077 24.2933 182.377 24.62C182.683 24.94 183.067 25.1 183.527 25.1ZM188.654 21.3C188.847 21.0467 189.11 20.8333 189.444 20.66C189.777 20.4867 190.154 20.4 190.574 20.4C191.054 20.4 191.49 20.52 191.884 20.76C192.284 20.9933 192.597 21.3233 192.824 21.75C193.05 22.1767 193.164 22.6667 193.164 23.22C193.164 23.7733 193.05 24.27 192.824 24.71C192.597 25.1433 192.284 25.4833 191.884 25.73C191.49 25.97 191.054 26.09 190.574 26.09C190.154 26.09 189.78 26.0067 189.454 25.84C189.127 25.6667 188.86 25.4533 188.654 25.2V28.62H187.514V20.49H188.654V21.3ZM192.004 23.22C192.004 22.84 191.924 22.5133 191.764 22.24C191.61 21.96 191.404 21.75 191.144 21.61C190.89 21.4633 190.617 21.39 190.324 21.39C190.037 21.39 189.764 21.4633 189.504 21.61C189.25 21.7567 189.044 21.97 188.884 22.25C188.73 22.53 188.654 22.86 188.654 23.24C188.654 23.62 188.73 23.9533 188.884 24.24C189.044 24.52 189.25 24.7333 189.504 24.88C189.764 25.0267 190.037 25.1 190.324 25.1C190.617 25.1 190.89 25.0267 191.144 24.88C191.404 24.7267 191.61 24.5067 191.764 24.22C191.924 23.9333 192.004 23.6 192.004 23.22ZM199.251 20.49L195.871 28.59H194.691L195.811 25.91L193.641 20.49H194.911L196.461 24.69L198.071 20.49H199.251ZM201.251 21.29C201.418 21.01 201.638 20.7933 201.911 20.64C202.191 20.48 202.521 20.4 202.901 20.4V21.58H202.611C202.165 21.58 201.825 21.6933 201.591 21.92C201.365 22.1467 201.251 22.54 201.251 23.1V26H200.111V20.49H201.251V21.29ZM204.529 19.76C204.323 19.76 204.149 19.69 204.009 19.55C203.869 19.41 203.799 19.2367 203.799 19.03C203.799 18.8233 203.869 18.65 204.009 18.51C204.149 18.37 204.323 18.3 204.529 18.3C204.729 18.3 204.899 18.37 205.039 18.51C205.179 18.65 205.249 18.8233 205.249 19.03C205.249 19.2367 205.179 19.41 205.039 19.55C204.899 19.69 204.729 19.76 204.529 19.76ZM205.089 20.49V26H203.949V20.49H205.089ZM208.806 20.4C209.233 20.4 209.609 20.4867 209.936 20.66C210.269 20.8267 210.529 21.0367 210.716 21.29V20.49H211.866V26.09C211.866 26.5967 211.759 27.0467 211.546 27.44C211.333 27.84 211.023 28.1533 210.616 28.38C210.216 28.6067 209.736 28.72 209.176 28.72C208.429 28.72 207.809 28.5433 207.316 28.19C206.823 27.8433 206.543 27.37 206.476 26.77H207.606C207.693 27.0567 207.876 27.2867 208.156 27.46C208.443 27.64 208.783 27.73 209.176 27.73C209.636 27.73 210.006 27.59 210.286 27.31C210.573 27.03 210.716 26.6233 210.716 26.09V25.17C210.523 25.43 210.259 25.65 209.926 25.83C209.599 26.0033 209.226 26.09 208.806 26.09C208.326 26.09 207.886 25.97 207.486 25.73C207.093 25.4833 206.779 25.1433 206.546 24.71C206.319 24.27 206.206 23.7733 206.206 23.22C206.206 22.6667 206.319 22.1767 206.546 21.75C206.779 21.3233 207.093 20.9933 207.486 20.76C207.886 20.52 208.326 20.4 208.806 20.4ZM210.716 23.24C210.716 22.86 210.636 22.53 210.476 22.25C210.323 21.97 210.119 21.7567 209.866 21.61C209.613 21.4633 209.339 21.39 209.046 21.39C208.753 21.39 208.479 21.4633 208.226 21.61C207.973 21.75 207.766 21.96 207.606 22.24C207.453 22.5133 207.376 22.84 207.376 23.22C207.376 23.6 207.453 23.9333 207.606 24.22C207.766 24.5067 207.973 24.7267 208.226 24.88C208.486 25.0267 208.759 25.1 209.046 25.1C209.339 25.1 209.613 25.0267 209.866 24.88C210.119 24.7333 210.323 24.52 210.476 24.24C210.636 23.9533 210.716 23.62 210.716 23.24ZM216.213 20.4C216.633 20.4 217.007 20.49 217.333 20.67C217.667 20.85 217.927 21.1167 218.113 21.47C218.307 21.8233 218.403 22.25 218.403 22.75V26H217.273V22.92C217.273 22.4267 217.15 22.05 216.903 21.79C216.657 21.5233 216.32 21.39 215.893 21.39C215.467 21.39 215.127 21.5233 214.873 21.79C214.627 22.05 214.503 22.4267 214.503 22.92V26H213.363V18.6H214.503V21.13C214.697 20.8967 214.94 20.7167 215.233 20.59C215.533 20.4633 215.86 20.4 216.213 20.4ZM221.187 21.42V24.47C221.187 24.6767 221.234 24.8267 221.327 24.92C221.427 25.0067 221.594 25.05 221.827 25.05H222.527V26H221.627C221.114 26 220.721 25.88 220.447 25.64C220.174 25.4 220.037 25.01 220.037 24.47V21.42H219.387V20.49H220.037V19.12H221.187V20.49H222.527V21.42H221.187ZM229.376 18.96C230.056 18.96 230.659 19.1133 231.186 19.42C231.712 19.72 232.122 20.14 232.416 20.68C232.709 21.22 232.856 21.8333 232.856 22.52C232.856 23.2067 232.709 23.8233 232.416 24.37C232.122 24.91 231.712 25.3333 231.186 25.64C230.659 25.94 230.056 26.09 229.376 26.09C228.696 26.09 228.089 25.94 227.556 25.64C227.029 25.3333 226.619 24.91 226.326 24.37C226.032 23.8233 225.886 23.2067 225.886 22.52C225.886 21.8333 226.032 21.22 226.326 20.68C226.619 20.14 227.029 19.72 227.556 19.42C228.089 19.1133 228.696 18.96 229.376 18.96ZM229.376 19.42C228.769 19.42 228.239 19.5467 227.786 19.8C227.339 20.0533 226.992 20.4167 226.746 20.89C226.506 21.3567 226.386 21.9 226.386 22.52C226.386 23.14 226.506 23.6833 226.746 24.15C226.992 24.6167 227.339 24.98 227.786 25.24C228.239 25.5 228.769 25.63 229.376 25.63C229.976 25.63 230.499 25.5 230.946 25.24C231.399 24.98 231.746 24.6167 231.986 24.15C232.232 23.6833 232.356 23.14 232.356 22.52C232.356 21.9 232.232 21.3567 231.986 20.89C231.746 20.4167 231.402 20.0533 230.956 19.8C230.509 19.5467 229.982 19.42 229.376 19.42ZM229.346 20.22C228.939 20.22 228.569 20.3167 228.236 20.51C227.902 20.6967 227.639 20.9633 227.446 21.31C227.259 21.6567 227.166 22.0567 227.166 22.51C227.166 22.9633 227.262 23.3667 227.456 23.72C227.649 24.0667 227.909 24.3367 228.236 24.53C228.569 24.7167 228.939 24.81 229.346 24.81C229.852 24.81 230.289 24.6767 230.656 24.41C231.022 24.1367 231.269 23.78 231.396 23.34H230.356C230.269 23.5533 230.146 23.7167 229.986 23.83C229.826 23.9433 229.612 24 229.346 24C228.992 24 228.709 23.8733 228.496 23.62C228.282 23.36 228.176 22.99 228.176 22.51C228.176 22.03 228.282 21.6633 228.496 21.41C228.709 21.1567 228.992 21.03 229.346 21.03C229.599 21.03 229.812 21.0867 229.986 21.2C230.166 21.3133 230.289 21.4767 230.356 21.69H231.396C231.269 21.2233 231.026 20.8633 230.666 20.61C230.306 20.35 229.866 20.22 229.346 20.22ZM237.144 24.45C237.784 23.8967 238.287 23.4433 238.654 23.09C239.027 22.73 239.337 22.3567 239.584 21.97C239.831 21.5833 239.954 21.1967 239.954 20.81C239.954 20.41 239.857 20.0967 239.664 19.87C239.477 19.6433 239.181 19.53 238.774 19.53C238.381 19.53 238.074 19.6567 237.854 19.91C237.641 20.1567 237.527 20.49 237.514 20.91H236.414C236.434 20.15 236.661 19.57 237.094 19.17C237.534 18.7633 238.091 18.56 238.764 18.56C239.491 18.56 240.057 18.76 240.464 19.16C240.877 19.56 241.084 20.0933 241.084 20.76C241.084 21.24 240.961 21.7033 240.714 22.15C240.474 22.59 240.184 22.9867 239.844 23.34C239.511 23.6867 239.084 24.09 238.564 24.55L238.114 24.95H241.284V25.9H236.424V25.07L237.144 24.45ZM242.286 22.26C242.286 21.1067 242.479 20.2067 242.866 19.56C243.259 18.9067 243.932 18.58 244.886 18.58C245.839 18.58 246.509 18.9067 246.896 19.56C247.289 20.2067 247.486 21.1067 247.486 22.26C247.486 23.4267 247.289 24.34 246.896 25C246.509 25.6533 245.839 25.98 244.886 25.98C243.932 25.98 243.259 25.6533 242.866 25C242.479 24.34 242.286 23.4267 242.286 22.26ZM246.366 22.26C246.366 21.72 246.329 21.2633 246.256 20.89C246.189 20.5167 246.049 20.2133 245.836 19.98C245.622 19.74 245.306 19.62 244.886 19.62C244.466 19.62 244.149 19.74 243.936 19.98C243.722 20.2133 243.579 20.5167 243.506 20.89C243.439 21.2633 243.406 21.72 243.406 22.26C243.406 22.82 243.439 23.29 243.506 23.67C243.572 24.05 243.712 24.3567 243.926 24.59C244.146 24.8233 244.466 24.94 244.886 24.94C245.306 24.94 245.622 24.8233 245.836 24.59C246.056 24.3567 246.199 24.05 246.266 23.67C246.332 23.29 246.366 22.82 246.366 22.26ZM249.322 24.45C249.962 23.8967 250.465 23.4433 250.832 23.09C251.205 22.73 251.515 22.3567 251.762 21.97C252.008 21.5833 252.132 21.1967 252.132 20.81C252.132 20.41 252.035 20.0967 251.842 19.87C251.655 19.6433 251.358 19.53 250.952 19.53C250.558 19.53 250.252 19.6567 250.032 19.91C249.818 20.1567 249.705 20.49 249.692 20.91H248.592C248.612 20.15 248.838 19.57 249.272 19.17C249.712 18.7633 250.268 18.56 250.942 18.56C251.668 18.56 252.235 18.76 252.642 19.16C253.055 19.56 253.262 20.0933 253.262 20.76C253.262 21.24 253.138 21.7033 252.892 22.15C252.652 22.59 252.362 22.9867 252.022 23.34C251.688 23.6867 251.262 24.09 250.742 24.55L250.292 24.95H253.462V25.9H248.602V25.07L249.322 24.45ZM254.463 22.26C254.463 21.1067 254.657 20.2067 255.043 19.56C255.437 18.9067 256.11 18.58 257.063 18.58C258.017 18.58 258.687 18.9067 259.073 19.56C259.467 20.2067 259.663 21.1067 259.663 22.26C259.663 23.4267 259.467 24.34 259.073 25C258.687 25.6533 258.017 25.98 257.063 25.98C256.11 25.98 255.437 25.6533 255.043 25C254.657 24.34 254.463 23.4267 254.463 22.26ZM258.543 22.26C258.543 21.72 258.507 21.2633 258.433 20.89C258.367 20.5167 258.227 20.2133 258.013 19.98C257.8 19.74 257.483 19.62 257.063 19.62C256.643 19.62 256.327 19.74 256.113 19.98C255.9 20.2133 255.757 20.5167 255.683 20.89C255.617 21.2633 255.583 21.72 255.583 22.26C255.583 22.82 255.617 23.29 255.683 23.67C255.75 24.05 255.89 24.3567 256.103 24.59C256.323 24.8233 256.643 24.94 257.063 24.94C257.483 24.94 257.8 24.8233 258.013 24.59C258.233 24.3567 258.377 24.05 258.443 23.67C258.51 23.29 258.543 22.82 258.543 22.26ZM265.907 26.07C265.441 26.07 265.021 25.99 264.647 25.83C264.274 25.6633 263.981 25.43 263.767 25.13C263.554 24.83 263.447 24.48 263.447 24.08H264.667C264.694 24.38 264.811 24.6267 265.017 24.82C265.231 25.0133 265.527 25.11 265.907 25.11C266.301 25.11 266.607 25.0167 266.827 24.83C267.047 24.6367 267.157 24.39 267.157 24.09C267.157 23.8567 267.087 23.6667 266.947 23.52C266.814 23.3733 266.644 23.26 266.437 23.18C266.237 23.1 265.957 23.0133 265.597 22.92C265.144 22.8 264.774 22.68 264.487 22.56C264.207 22.4333 263.967 22.24 263.767 21.98C263.567 21.72 263.467 21.3733 263.467 20.94C263.467 20.54 263.567 20.19 263.767 19.89C263.967 19.59 264.247 19.36 264.607 19.2C264.967 19.04 265.384 18.96 265.857 18.96C266.531 18.96 267.081 19.13 267.507 19.47C267.941 19.8033 268.181 20.2633 268.227 20.85H266.967C266.947 20.5967 266.827 20.38 266.607 20.2C266.387 20.02 266.097 19.93 265.737 19.93C265.411 19.93 265.144 20.0133 264.937 20.18C264.731 20.3467 264.627 20.5867 264.627 20.9C264.627 21.1133 264.691 21.29 264.817 21.43C264.951 21.5633 265.117 21.67 265.317 21.75C265.517 21.83 265.791 21.9167 266.137 22.01C266.597 22.1367 266.971 22.2633 267.257 22.39C267.551 22.5167 267.797 22.7133 267.997 22.98C268.204 23.24 268.307 23.59 268.307 24.03C268.307 24.3833 268.211 24.7167 268.017 25.03C267.831 25.3433 267.554 25.5967 267.187 25.79C266.827 25.9767 266.401 26.07 265.907 26.07ZM272.502 20.4C272.922 20.4 273.296 20.49 273.622 20.67C273.956 20.85 274.216 21.1167 274.402 21.47C274.596 21.8233 274.692 22.25 274.692 22.75V26H273.562V22.92C273.562 22.4267 273.439 22.05 273.192 21.79C272.946 21.5233 272.609 21.39 272.182 21.39C271.756 21.39 271.416 21.5233 271.162 21.79C270.916 22.05 270.792 22.4267 270.792 22.92V26H269.652V18.6H270.792V21.13C270.986 20.8967 271.229 20.7167 271.522 20.59C271.822 20.4633 272.149 20.4 272.502 20.4ZM278.536 26.09C278.016 26.09 277.546 25.9733 277.126 25.74C276.706 25.5 276.376 25.1667 276.136 24.74C275.896 24.3067 275.776 23.8067 275.776 23.24C275.776 22.68 275.9 22.1833 276.146 21.75C276.393 21.3167 276.73 20.9833 277.156 20.75C277.583 20.5167 278.06 20.4 278.586 20.4C279.113 20.4 279.59 20.5167 280.016 20.75C280.443 20.9833 280.78 21.3167 281.026 21.75C281.273 22.1833 281.396 22.68 281.396 23.24C281.396 23.8 281.27 24.2967 281.016 24.73C280.763 25.1633 280.416 25.5 279.976 25.74C279.543 25.9733 279.063 26.09 278.536 26.09ZM278.536 25.1C278.83 25.1 279.103 25.03 279.356 24.89C279.616 24.75 279.826 24.54 279.986 24.26C280.146 23.98 280.226 23.64 280.226 23.24C280.226 22.84 280.15 22.5033 279.996 22.23C279.843 21.95 279.64 21.74 279.386 21.6C279.133 21.46 278.86 21.39 278.566 21.39C278.273 21.39 278 21.46 277.746 21.6C277.5 21.74 277.303 21.95 277.156 22.23C277.01 22.5033 276.936 22.84 276.936 23.24C276.936 23.8333 277.086 24.2933 277.386 24.62C277.693 24.94 278.076 25.1 278.536 25.1ZM283.663 21.3C283.857 21.0467 284.12 20.8333 284.453 20.66C284.787 20.4867 285.163 20.4 285.583 20.4C286.063 20.4 286.5 20.52 286.893 20.76C287.293 20.9933 287.607 21.3233 287.833 21.75C288.06 22.1767 288.173 22.6667 288.173 23.22C288.173 23.7733 288.06 24.27 287.833 24.71C287.607 25.1433 287.293 25.4833 286.893 25.73C286.5 25.97 286.063 26.09 285.583 26.09C285.163 26.09 284.79 26.0067 284.463 25.84C284.137 25.6667 283.87 25.4533 283.663 25.2V28.62H282.523V20.49H283.663V21.3ZM287.013 23.22C287.013 22.84 286.933 22.5133 286.773 22.24C286.62 21.96 286.413 21.75 286.153 21.61C285.9 21.4633 285.627 21.39 285.333 21.39C285.047 21.39 284.773 21.4633 284.513 21.61C284.26 21.7567 284.053 21.97 283.893 22.25C283.74 22.53 283.663 22.86 283.663 23.24C283.663 23.62 283.74 23.9533 283.893 24.24C284.053 24.52 284.26 24.7333 284.513 24.88C284.773 25.0267 285.047 25.1 285.333 25.1C285.627 25.1 285.9 25.0267 286.153 24.88C286.413 24.7267 286.62 24.5067 286.773 24.22C286.933 23.9333 287.013 23.6 287.013 23.22ZM296.758 21.12C296.758 21.4733 296.675 21.8067 296.508 22.12C296.342 22.4333 296.075 22.69 295.708 22.89C295.342 23.0833 294.872 23.18 294.298 23.18H293.038V26H291.898V19.05H294.298C294.832 19.05 295.282 19.1433 295.648 19.33C296.022 19.51 296.298 19.7567 296.478 20.07C296.665 20.3833 296.758 20.7333 296.758 21.12ZM294.298 22.25C294.732 22.25 295.055 22.1533 295.268 21.96C295.482 21.76 295.588 21.48 295.588 21.12C295.588 20.36 295.158 19.98 294.298 19.98H293.038V22.25H294.298ZM299.176 21.42V24.47C299.176 24.6767 299.222 24.8267 299.316 24.92C299.416 25.0067 299.582 25.05 299.816 25.05H300.516V26H299.616C299.102 26 298.709 25.88 298.436 25.64C298.162 25.4 298.026 25.01 298.026 24.47V21.42H297.376V20.49H298.026V19.12H299.176V20.49H300.516V21.42H299.176ZM306.526 20.49L303.146 28.59H301.966L303.086 25.91L300.916 20.49H302.186L303.736 24.69L305.346 20.49H306.526ZM307.847 26.07C307.64 26.07 307.467 26 307.327 25.86C307.187 25.72 307.117 25.5467 307.117 25.34C307.117 25.1333 307.187 24.96 307.327 24.82C307.467 24.68 307.64 24.61 307.847 24.61C308.047 24.61 308.217 24.68 308.357 24.82C308.497 24.96 308.567 25.1333 308.567 25.34C308.567 25.5467 308.497 25.72 308.357 25.86C308.217 26 308.047 26.07 307.847 26.07ZM313.536 25.08H315.886V26H312.396V19.05H313.536V25.08ZM318.17 21.42V24.47C318.17 24.6767 318.217 24.8267 318.31 24.92C318.41 25.0067 318.577 25.05 318.81 25.05H319.51V26H318.61C318.097 26 317.703 25.88 317.43 25.64C317.157 25.4 317.02 25.01 317.02 24.47V21.42H316.37V20.49H317.02V19.12H318.17V20.49H319.51V21.42H318.17ZM320.181 23.22C320.181 22.6667 320.294 22.1767 320.521 21.75C320.754 21.3233 321.067 20.9933 321.461 20.76C321.861 20.52 322.304 20.4 322.791 20.4C323.151 20.4 323.504 20.48 323.851 20.64C324.204 20.7933 324.484 21 324.691 21.26V18.6H325.841V26H324.691V25.17C324.504 25.4367 324.244 25.6567 323.911 25.83C323.584 26.0033 323.207 26.09 322.781 26.09C322.301 26.09 321.861 25.97 321.461 25.73C321.067 25.4833 320.754 25.1433 320.521 24.71C320.294 24.27 320.181 23.7733 320.181 23.22ZM324.691 23.24C324.691 22.86 324.611 22.53 324.451 22.25C324.297 21.97 324.094 21.7567 323.841 21.61C323.587 21.4633 323.314 21.39 323.021 21.39C322.727 21.39 322.454 21.4633 322.201 21.61C321.947 21.75 321.741 21.96 321.581 22.24C321.427 22.5133 321.351 22.84 321.351 23.22C321.351 23.6 321.427 23.9333 321.581 24.22C321.741 24.5067 321.947 24.7267 322.201 24.88C322.461 25.0267 322.734 25.1 323.021 25.1C323.314 25.1 323.587 25.0267 323.841 24.88C324.094 24.7333 324.297 24.52 324.451 24.24C324.611 23.9533 324.691 23.62 324.691 23.24ZM327.798 26.07C327.591 26.07 327.418 26 327.278 25.86C327.138 25.72 327.068 25.5467 327.068 25.34C327.068 25.1333 327.138 24.96 327.278 24.82C327.418 24.68 327.591 24.61 327.798 24.61C327.998 24.61 328.168 24.68 328.308 24.82C328.448 24.96 328.518 25.1333 328.518 25.34C328.518 25.5467 328.448 25.72 328.308 25.86C328.168 26 327.998 26.07 327.798 26.07Z" fill="white"/>
</svg>
