<svg width="209" height="22" viewBox="0 0 209 22" fill="none" xmlns="http://www.w3.org/2000/svg">
    <g clip-path="url(#clip0_2490_2306)">
        <path d="M44.5289 2.74463C44.5289 1.22881 45.7719 0 47.3051 0H75.0668C76.6001 0 77.843 1.22881 77.843 2.74463V19.2124C77.843 20.7282 76.6001 21.957 75.0668 21.957H47.3051C45.7719 21.957 44.5289 20.7282 44.5289 19.2124V2.74463Z" fill="#D8E3F3"/>
        <path d="M73.2 6.88275H71.4548C70.9271 6.88275 70.5213 7.04326 70.2777 7.5649L66.9496 15.0685H69.3037C69.3037 15.0685 69.7095 14.0653 69.7907 13.8246C70.0342 13.8246 72.3477 13.8246 72.6724 13.8246C72.7536 14.1055 72.9565 15.0284 72.9565 15.0284H75.0671L73.2 6.88275ZM70.4401 12.1393C70.643 11.6578 71.333 9.85208 71.333 9.85208C71.333 9.89221 71.536 9.37057 71.6171 9.08969L71.7795 9.81196C71.7795 9.81196 72.2259 11.7781 72.3071 12.1794H70.4401V12.1393Z" fill="#3362AB"/>
        <path d="M67.1117 12.382C67.1117 14.0673 65.5694 15.1908 63.1747 15.1908C62.1601 15.1908 61.186 14.9902 60.6583 14.7494L60.983 12.9036L61.2671 13.024C61.9977 13.345 62.4848 13.4654 63.3777 13.4654C64.0271 13.4654 64.7171 13.2246 64.7171 12.6629C64.7171 12.3017 64.4329 12.061 63.54 11.6597C62.6877 11.2585 61.5512 10.6165 61.5512 9.45279C61.5512 7.84775 63.1342 6.76434 65.3665 6.76434C66.2188 6.76434 66.9494 6.92485 67.3958 7.12548L67.0711 8.89103L66.9088 8.73052C66.5029 8.57002 65.9753 8.40951 65.2041 8.40951C64.3518 8.44964 63.9459 8.81078 63.9459 9.13178C63.9459 9.49292 64.4329 9.7738 65.2041 10.1349C66.5029 10.7368 67.1117 11.419 67.1117 12.382Z" fill="#3362AB"/>
        <path d="M47.3051 6.96434L47.3456 6.80383H50.8362C51.3232 6.80383 51.6885 6.96434 51.8102 7.48598L52.5814 11.0973C51.8102 9.17127 50.0244 7.60636 47.3051 6.96434Z" fill="#F9B50B"/>
        <path d="M57.4926 6.88436L53.9615 15.03H51.5668L49.5375 8.20853C50.9986 9.13143 52.2162 10.576 52.6627 11.5791L52.9062 12.4218L55.0979 6.84424H57.4926V6.88436Z" fill="#3362AB"/>
        <path d="M58.4261 6.84424H60.6584L59.2378 15.03H57.0055L58.4261 6.84424Z" fill="#3362AB"/>
    </g>
    <g clip-path="url(#clip1_2490_2306)">
        <path d="M0.457642 2.74463C0.457642 1.22881 1.72883 0 3.29691 0H31.6896C33.2577 0 34.5289 1.22881 34.5289 2.74463V19.2124C34.5289 20.7282 33.2577 21.957 31.6896 21.957H3.29691C1.72883 21.957 0.457642 20.7282 0.457642 19.2124V2.74463Z" fill="#CCDEFF"/>
        <path d="M8.10292 7.90276C7.74704 7.66626 7.28265 7.54773 6.70975 7.54773H4.49178C4.31615 7.54773 4.21912 7.63264 4.20069 7.80229L3.2997 13.2695C3.29034 13.3232 3.30424 13.3723 3.34127 13.4169C3.37809 13.4617 3.4244 13.4839 3.47987 13.4839H4.53339C4.71817 13.4839 4.81973 13.3992 4.83838 13.2293L5.08786 11.7554C5.09697 11.684 5.12947 11.6259 5.18493 11.5812C5.24035 11.5365 5.30967 11.5073 5.39285 11.494C5.47602 11.4807 5.55445 11.474 5.62852 11.474C5.70237 11.474 5.79012 11.4785 5.89194 11.4874C5.99351 11.4963 6.05825 11.5007 6.086 11.5007C6.88072 11.5007 7.50451 11.2842 7.95742 10.8508C8.41011 10.4176 8.63672 9.81689 8.63672 9.04842C8.63672 8.52136 8.45863 8.1395 8.10292 7.90264V7.90276ZM6.95936 9.54439C6.91301 9.85711 6.79301 10.0625 6.59895 10.1608C6.40485 10.2592 6.12761 10.3082 5.76724 10.3082L5.30976 10.3215L5.54547 8.8877C5.56386 8.78952 5.6239 8.74037 5.72563 8.74037H5.9891C6.35858 8.74037 6.62675 8.79186 6.7931 8.89442C6.95936 8.99722 7.01483 9.21394 6.95936 9.54439Z" fill="#003087"/>
        <path d="M31.5091 7.54773H30.4834C30.3815 7.54773 30.3215 7.59688 30.3031 7.69522L29.4021 13.2697L29.3882 13.2965C29.3882 13.3414 29.4067 13.3836 29.4437 13.4239C29.4805 13.464 29.5269 13.4841 29.5823 13.4841H30.4973C30.6726 13.4841 30.7697 13.3994 30.7885 13.2295L31.6895 7.74884V7.73553C31.6894 7.6104 31.6292 7.54789 31.5091 7.54789V7.54773Z" fill="#009CDE"/>
        <path d="M19.1161 9.70657C19.1161 9.66201 19.0976 9.6195 19.0608 9.5794C19.0238 9.53922 18.9822 9.51898 18.9361 9.51898H17.8687C17.7668 9.51898 17.6836 9.56387 17.6191 9.65296L16.1497 11.7435L15.5398 9.73344C15.4933 9.59062 15.3918 9.51898 15.2348 9.51898H14.195C14.1487 9.51898 14.1071 9.53913 14.0704 9.5794C14.0333 9.6195 14.0149 9.66209 14.0149 9.70657C14.0149 9.72455 14.105 9.988 14.2852 10.4972C14.4653 11.0066 14.6594 11.556 14.8674 12.1456C15.0753 12.7352 15.1838 13.048 15.1931 13.0834C14.4353 14.0841 14.0565 14.6201 14.0565 14.6915C14.0565 14.8077 14.1165 14.8657 14.2367 14.8657H15.3041C15.4057 14.8657 15.4888 14.8211 15.5537 14.7318L19.0886 9.80033C19.1069 9.78263 19.1161 9.75151 19.1161 9.70653V9.70657Z" fill="#003087"/>
        <path d="M29.0563 9.51689H28.0028C27.8733 9.51689 27.795 9.66434 27.7672 9.95921C27.5267 9.60196 27.088 9.4231 26.4502 9.4231C25.7848 9.4231 25.2187 9.66434 24.7521 10.1468C24.2854 10.6292 24.0521 11.1966 24.0521 11.8487C24.0521 12.3759 24.2115 12.7957 24.5303 13.1083C24.8491 13.4212 25.2765 13.5773 25.8127 13.5773C26.0806 13.5773 26.3532 13.5236 26.6305 13.4165C26.9077 13.3093 27.1247 13.1664 27.2821 12.9877C27.2821 12.9967 27.2726 13.0367 27.2544 13.1081C27.2357 13.1797 27.2266 13.2335 27.2266 13.2689C27.2266 13.4121 27.2865 13.4833 27.4068 13.4833H28.3634C28.5388 13.4833 28.6406 13.3986 28.6682 13.2288L29.2366 9.73127C29.2457 9.67762 29.2319 9.62859 29.195 9.58386C29.1579 9.5393 29.1118 9.51689 29.0563 9.51689ZM27.2474 12.1569C27.0117 12.3802 26.7275 12.4918 26.3948 12.4918C26.1267 12.4918 25.9097 12.4205 25.7433 12.2775C25.5768 12.1348 25.4937 11.9383 25.4937 11.6878C25.4937 11.3576 25.6092 11.0781 25.8403 10.8504C26.0711 10.6225 26.3578 10.5087 26.6998 10.5087C26.9583 10.5087 27.1732 10.5824 27.3443 10.7297C27.5151 10.8771 27.6009 11.0804 27.6009 11.3395C27.6008 11.6611 27.483 11.9336 27.2474 12.1569Z" fill="#009CDE"/>
        <path d="M13.3084 9.51689H12.2549C12.1253 9.51689 12.0469 9.66434 12.0192 9.95921C11.7697 9.60196 11.3306 9.4231 10.7022 9.4231C10.0368 9.4231 9.47072 9.66434 9.00409 10.1468C8.53733 10.6292 8.30408 11.1966 8.30408 11.8487C8.30408 12.3759 8.46352 12.7957 8.78236 13.1083C9.1012 13.4212 9.52852 13.5773 10.0646 13.5773C10.3232 13.5773 10.5914 13.5236 10.8686 13.4165C11.1458 13.3093 11.3676 13.1664 11.534 12.9877C11.4969 13.0948 11.4785 13.1886 11.4785 13.2689C11.4785 13.4121 11.5386 13.4833 11.6587 13.4833H12.6152C12.7907 13.4833 12.8924 13.3986 12.9202 13.2288L13.4885 9.73127C13.4976 9.67762 13.4838 9.62859 13.447 9.58386C13.41 9.5393 13.3638 9.51689 13.3084 9.51689ZM11.4994 12.1635C11.2637 12.3826 10.9748 12.4918 10.633 12.4918C10.3649 12.4918 10.15 12.4205 9.98841 12.2775C9.8266 12.1348 9.7458 11.9383 9.7458 11.6878C9.7458 11.3576 9.86126 11.0781 10.0924 10.8504C10.3233 10.6225 10.6098 10.5086 10.9518 10.5086C11.2105 10.5086 11.4253 10.5824 11.5965 10.7297C11.7673 10.8771 11.8529 11.0804 11.8529 11.3395C11.8529 11.6701 11.7351 11.9449 11.4994 12.1635Z" fill="#003087"/>
        <path d="M23.8506 7.90276C23.4947 7.66626 23.0305 7.54773 22.4574 7.54773H20.2533C20.0684 7.54773 19.9667 7.63264 19.9483 7.80229L19.0473 13.2695C19.0379 13.3232 19.0518 13.3723 19.0889 13.4169C19.1255 13.4617 19.172 13.4839 19.2274 13.4839H20.3641C20.475 13.4839 20.5489 13.4259 20.5859 13.3097L20.8355 11.7554C20.8447 11.684 20.877 11.6259 20.9325 11.5812C20.988 11.5365 21.0572 11.5073 21.1405 11.494C21.2236 11.4807 21.302 11.474 21.3761 11.474C21.45 11.474 21.5377 11.4785 21.6394 11.4874C21.7411 11.4963 21.806 11.5007 21.8335 11.5007C22.6284 11.5007 23.2521 11.2842 23.705 10.8508C24.1578 10.4176 24.3842 9.81689 24.3842 9.04842C24.3843 8.52136 24.2063 8.13946 23.8506 7.90264V7.90276ZM22.4297 10.1071C22.2264 10.2411 21.9213 10.3081 21.5148 10.3081L21.0712 10.3215L21.3068 8.88762C21.3251 8.78948 21.3852 8.74025 21.487 8.74025H21.7364C21.9398 8.74025 22.1015 8.74922 22.2218 8.76703C22.3417 8.78497 22.4574 8.84072 22.5683 8.93447C22.6793 9.02831 22.7347 9.16462 22.7347 9.3432C22.7347 9.71855 22.6329 9.97303 22.4297 10.1071Z" fill="#009CDE"/>
    </g>
    <g clip-path="url(#clip2_2490_2306)">
        <path d="M87.843 2.74463C87.843 1.22881 89.086 0 90.6192 0H118.381C119.914 0 121.157 1.22881 121.157 2.74463V19.2124C121.157 20.7282 119.914 21.957 118.381 21.957H90.6192C89.086 21.957 87.843 20.7282 87.843 19.2124V2.74463Z" fill="#CCEFFF"/>
        <path d="M108.144 17.4544H100.857V4.50757H108.144V17.4544Z" fill="#6C6BBD"/>
        <path d="M101.324 10.9785C101.324 8.3522 102.567 6.01275 104.504 4.50512C103.088 3.40266 101.3 2.74464 99.3576 2.74464C94.7584 2.74464 91.0302 6.43102 91.0302 10.9785C91.0302 15.526 94.7584 19.2124 99.3576 19.2124C101.3 19.2124 103.088 18.5544 104.504 17.4519C102.567 15.9443 101.324 13.6048 101.324 10.9785Z" fill="#EB001B"/>
        <path d="M117.971 10.9785C117.971 15.526 114.243 19.2124 109.644 19.2124C107.701 19.2124 105.913 18.5544 104.496 17.4519C106.434 15.9443 107.677 13.6048 107.677 10.9785C107.677 8.3522 106.434 6.01275 104.496 4.50512C105.913 3.40266 107.701 2.74464 109.644 2.74464C114.243 2.74464 117.971 6.43102 117.971 10.9785Z" fill="#0099DF"/>
    </g>
    <g clip-path="url(#clip3_2490_2306)">
        <path d="M131.157 2.74463C131.157 1.22881 132.428 0 133.996 0H162.389C163.957 0 165.228 1.22881 165.228 2.74463V19.2124C165.228 20.7282 163.957 21.957 162.389 21.957H133.996C132.428 21.957 131.157 20.7282 131.157 19.2124V2.74463Z" fill="#FCE0CF"/>
        <path d="M151.444 10.964C151.446 10.3741 151.217 9.78335 150.757 9.33817C150.296 8.89207 149.683 8.67107 149.071 8.67462C149.068 8.67462 149.066 8.67444 149.063 8.67444C147.735 8.67444 146.681 9.69238 146.681 10.9764C146.681 12.2477 147.748 13.2781 149.063 13.2781C150.391 13.2781 151.444 12.26 151.444 10.9764C151.444 10.9721 151.444 10.9682 151.444 10.964Z" fill="#F26E21"/>
        <path d="M146.239 11.9507C145.883 12.2951 145.555 12.4297 145.201 12.437C144.339 12.4295 143.705 11.8124 143.705 10.9327C143.705 10.4898 143.879 10.1269 144.153 9.81678C144.411 9.5803 144.743 9.42749 145.125 9.42749C145.537 9.42749 145.858 9.56028 146.224 9.91443V8.8963C145.858 8.71932 145.537 8.63074 145.125 8.63074C144.543 8.67096 143.994 8.89832 143.573 9.25535C143.451 9.36089 143.335 9.47739 143.237 9.61072C142.929 9.99603 142.743 10.4678 142.743 10.9771C142.743 12.2607 143.797 13.2345 145.125 13.2345C145.131 13.2345 145.138 13.234 145.144 13.2339C145.153 13.2341 145.162 13.2345 145.17 13.2345C145.537 13.2345 145.858 13.1462 146.27 12.9691L146.239 11.9507C146.224 11.9657 146.254 11.9796 146.239 11.9937V11.9507Z" fill="#2B2B2B"/>
        <path d="M154.45 9.26516L153.413 11.7299L152.222 8.80804H151.261L153.138 13.2791H153.642L155.611 8.80804H154.649L154.45 9.26516Z" fill="#2B2B2B"/>
        <path d="M155.978 10.7559V13.1465H158.451H158.497V12.438H157.718H156.894V11.6414V11.2431H158.451V10.4903H156.894V9.56072H158.497V8.80804H155.978V10.7559Z" fill="#2B2B2B"/>
        <path d="M135.279 8.8089H133.996V13.1474H135.279C135.966 13.1474 136.469 12.9702 136.881 12.6603C137.385 12.2619 137.706 11.6423 137.706 10.9784C137.706 9.69424 136.744 8.8089 135.279 8.8089ZM136.332 12.0849C136.057 12.3062 135.691 12.4388 135.141 12.4388H134.866V9.56152H135.095C135.645 9.56152 136.011 9.65004 136.286 9.91554C136.607 10.181 136.79 10.5796 136.79 10.9782C136.836 11.3766 136.653 11.8191 136.332 12.0849Z" fill="#2B2B2B"/>
        <path d="M138.988 8.8078H138.118V13.1462H138.988V8.8078Z" fill="#2B2B2B"/>
        <path d="M141.186 10.4908C140.637 10.3137 140.499 10.1808 140.499 9.95957C140.499 9.69394 140.774 9.47264 141.141 9.47264C141.415 9.47264 141.644 9.56122 141.873 9.82685L142.331 9.2514C141.965 8.94139 141.507 8.76453 141.003 8.76453C140.225 8.76453 139.583 9.29578 139.583 10.0038C139.583 10.6237 139.859 10.8893 140.683 11.1992C141.049 11.3318 141.186 11.3762 141.278 11.4647C141.461 11.5531 141.553 11.7304 141.553 11.9072C141.553 12.2614 141.278 12.5271 140.866 12.5271C140.453 12.5271 140.087 12.3058 139.904 11.9516L139.354 12.4829C139.767 13.0583 140.271 13.3239 140.912 13.3239C141.828 13.3239 142.468 12.7484 142.468 11.9072C142.468 11.1549 142.194 10.845 141.186 10.4908Z" fill="#2B2B2B"/>
        <path d="M160.97 11.3313C161.657 11.1987 162.023 10.7558 162.023 10.092C162.023 9.29528 161.428 8.80804 160.42 8.80804H159.092V13.1465H159.962V11.4199H160.1L161.336 13.1465H162.389L160.97 11.3313ZM160.237 10.8H159.962V9.47214H160.237C160.787 9.47214 161.107 9.69339 161.107 10.1364C161.107 10.5788 160.787 10.8 160.237 10.8Z" fill="#2B2B2B"/>
    </g>
    <g clip-path="url(#clip4_2490_2306)">
        <path d="M175.228 2.74463C175.228 1.22881 176.471 0 178.004 0H205.766C207.299 0 208.542 1.22881 208.542 2.74463V19.2124C208.542 20.7282 207.299 21.957 205.766 21.957H178.004C176.471 21.957 175.228 20.7282 175.228 19.2124V2.74463Z" fill="#D4DEF7"/>
        <path d="M199.813 6.77289L199.169 8.17772H200.461L199.813 6.77289ZM192.375 7.64344C192.497 7.58643 192.568 7.46242 192.568 7.30842C192.568 7.15751 192.493 7.04821 192.371 6.99685C192.261 6.93992 192.091 6.93334 191.927 6.93334H190.774V7.71609H191.912C192.094 7.71613 192.246 7.71372 192.375 7.64344ZM177.598 6.77289L176.961 8.17772H178.239L177.598 6.77289ZM207.27 15.7727H205.461V15.0168H207.262C207.441 15.0168 207.566 14.9958 207.641 14.9295C207.713 14.8704 207.753 14.787 207.752 14.6997C207.752 14.597 207.707 14.5154 207.638 14.4666C207.57 14.4128 207.471 14.3883 207.308 14.3883C206.428 14.3615 205.331 14.4127 205.331 13.2973C205.331 12.7861 205.692 12.248 206.675 12.248H208.54V11.5467H206.807C206.284 11.5467 205.904 11.6594 205.635 11.8346V11.5467H203.072C202.662 11.5467 202.18 11.6381 201.953 11.8346V11.5467H197.375V11.8346C197.01 11.5982 196.395 11.5467 196.112 11.5467H193.092V11.8346C192.804 11.5835 192.163 11.5467 191.772 11.5467H188.393L187.619 12.2995L186.895 11.5467H181.847V16.4654H186.8L187.597 15.7005L188.347 16.4654L191.4 16.4678V15.3107H191.701C192.106 15.3166 192.583 15.3018 193.005 15.1379V16.4652H195.523V15.1832H195.645C195.8 15.1832 195.815 15.189 195.815 15.3284V16.4649H203.466C203.951 16.4649 204.459 16.3532 204.74 16.1501V16.4649H207.167C207.672 16.4649 208.165 16.4013 208.54 16.2383V15.322C208.313 15.6212 207.869 15.7729 207.27 15.7729L207.27 15.7727ZM191.741 14.6113H190.572V15.7936H188.752L187.599 14.6268L186.4 15.7936H182.691V12.2688H186.457L187.61 13.4242L188.801 12.2688H191.793C192.537 12.2688 193.372 12.4539 193.372 13.43C193.372 14.4092 192.559 14.6113 191.741 14.6113ZM197.36 14.4515C197.492 14.6235 197.511 14.7841 197.515 15.0948V15.7936H196.575V15.3526C196.575 15.1406 196.598 14.8266 196.423 14.6627C196.287 14.5365 196.078 14.5063 195.736 14.5063H194.735V15.7936H193.794V12.2688H195.956C196.431 12.2688 196.776 12.2878 197.083 12.4351C197.379 12.5957 197.565 12.8158 197.565 13.2179C197.565 13.7804 197.148 14.0674 196.901 14.1556C197.11 14.2248 197.28 14.3488 197.36 14.4515ZM201.228 12.9978H199.035V13.6385H201.175V14.3577H199.035V15.059L201.228 15.0622V15.7936H198.103V12.2688H201.228V12.9978ZM203.635 15.7935H201.811V15.0377H203.628C203.805 15.0377 203.931 15.0165 204.01 14.9503C204.075 14.8959 204.121 14.8166 204.121 14.7206C204.121 14.6178 204.071 14.5363 204.007 14.4874C203.935 14.4336 203.836 14.4093 203.673 14.4093C202.797 14.3823 201.7 14.4335 201.7 13.3182C201.7 12.807 202.058 12.2688 203.039 12.2688H204.917V13.0189H203.199C203.029 13.0189 202.918 13.0248 202.824 13.0828C202.721 13.1399 202.683 13.2245 202.683 13.3362C202.683 13.4692 202.77 13.5597 202.888 13.5988C202.987 13.6297 203.093 13.6387 203.252 13.6387L203.757 13.6511C204.265 13.6621 204.614 13.7413 204.826 13.9345C205.008 14.1042 205.106 14.3185 205.106 14.6812C205.106 15.4395 204.579 15.7935 203.635 15.7935ZM196.371 13.0546C196.258 12.9941 196.091 12.9909 195.925 12.9909H194.771V13.7825H195.909C196.091 13.7825 196.246 13.7767 196.371 13.7099C196.493 13.6439 196.566 13.5223 196.566 13.3716C196.566 13.2208 196.493 13.1117 196.371 13.0546ZM206.835 12.9909C206.665 12.9909 206.552 12.9967 206.456 13.0545C206.358 13.1117 206.32 13.1963 206.32 13.3082C206.32 13.441 206.403 13.5316 206.524 13.5707C206.623 13.6016 206.729 13.6107 206.885 13.6107L207.393 13.6228C207.905 13.6342 208.247 13.7135 208.455 13.9067C208.493 13.9335 208.516 13.9636 208.542 13.9938V12.9909H206.835L206.835 12.9909ZM191.773 12.9909H190.552V13.8886H191.762C192.122 13.8886 192.346 13.728 192.346 13.4231C192.346 13.1148 192.111 12.9909 191.773 12.9909ZM183.623 12.9909V13.6317H185.679V14.3509H183.623V15.0521H185.926L186.996 14.0181L185.971 12.9909H183.623ZM189.636 15.4558V12.6299L188.198 14.0201L189.636 15.4558ZM183.702 9.79658V10.4039H191.526L191.523 9.11908H191.674C191.78 9.12241 191.811 9.13119 191.811 9.28863V10.404H195.858V10.1048C196.184 10.2621 196.692 10.404 197.36 10.404H199.062L199.427 9.62125H200.235L200.591 10.404H203.871V9.66046L204.368 10.4039H206.997V5.48926H204.396V6.06969L204.031 5.48926H201.361V6.06969L201.027 5.48926H197.421C196.817 5.48926 196.286 5.56503 195.858 5.77625V5.48926H193.369V5.77625C193.096 5.55854 192.725 5.48926 192.311 5.48926H183.219L182.609 6.7587L181.983 5.48926H179.119V6.06969L178.805 5.48926H176.362L175.228 7.82606V9.69526L176.905 6.17129H178.297L179.89 9.50774V6.17129H181.418L182.644 8.56186L183.77 6.17129H185.329V9.69526H184.369L184.366 6.93535L183.007 9.69526H182.185L180.824 6.9329V9.69526H178.919L178.559 8.90923H176.609L176.245 9.69526H175.228V10.4042H176.828L177.189 9.62145H177.997L178.357 10.4042H181.505V9.80572L181.786 10.4067H183.421L183.702 9.7967L183.702 9.79658ZM196.031 6.58204C196.334 6.30079 196.808 6.17109 197.454 6.17109H198.36V6.92617H197.473C197.131 6.92617 196.938 6.97187 196.752 7.13497C196.592 7.28332 196.483 7.56381 196.483 7.93315C196.483 8.31071 196.566 8.58291 196.74 8.76072C196.885 8.90017 197.147 8.94247 197.393 8.94247H197.814L199.134 6.17121H200.537L202.123 9.50434V6.17125H203.548L205.195 8.62549V6.17125H206.154V9.6951H204.827L203.052 7.05022V9.6951H201.144L200.78 8.90907H198.834L198.481 9.6951H197.385C196.93 9.6951 196.353 9.60457 196.027 9.30531C195.698 9.00613 195.527 8.60083 195.527 7.96006C195.527 7.43736 195.629 6.9596 196.031 6.58204ZM194.105 6.17113H195.061V9.6951H194.105V6.17113ZM189.797 6.17113H191.951C192.429 6.17113 192.782 6.18255 193.085 6.33992C193.381 6.49733 193.559 6.72714 193.559 7.12014C193.559 7.68205 193.142 7.97229 192.899 8.05949C193.104 8.12965 193.279 8.25358 193.362 8.35622C193.495 8.53151 193.517 8.68807 193.517 9.00277V9.69506H192.573L192.569 9.25066C192.569 9.03857 192.592 8.73362 192.422 8.56418C192.285 8.4403 192.076 8.41331 191.739 8.41331H190.734V9.6951H189.797L189.797 6.17113ZM186.022 6.17113H189.15V6.90496H186.958V7.54016H189.097V8.26252H186.958V8.96628H189.15V9.69506H186.022V6.17113Z" fill="#2557D6"/>
    </g>
    <defs>
        <clipPath id="clip0_2490_2306">
            <rect width="33.3141" height="21.957" fill="white" transform="translate(44.5289)"/>
        </clipPath>
        <clipPath id="clip1_2490_2306">
            <rect width="34.0712" height="21.957" fill="white" transform="translate(0.457642)"/>
        </clipPath>
        <clipPath id="clip2_2490_2306">
            <rect width="33.3141" height="21.957" fill="white" transform="translate(87.843)"/>
        </clipPath>
        <clipPath id="clip3_2490_2306">
            <rect width="34.0712" height="21.957" fill="white" transform="translate(131.157)"/>
        </clipPath>
        <clipPath id="clip4_2490_2306">
            <rect width="33.3141" height="21.957" fill="white" transform="translate(175.228)"/>
        </clipPath>
    </defs>
</svg>
