<svg width="73" height="23" viewBox="0 0 73 23" fill="none" xmlns="http://www.w3.org/2000/svg">
    <path d="M56.1932 7.78003H52.5409C52.3261 7.78003 52.1113 7.99056 52.0039 8.20108L50.5 17.4642C50.5 17.6748 50.6074 17.78 50.8223 17.78H52.7558C52.9706 17.78 53.078 17.6748 53.078 17.4642L53.5077 14.8327C53.5077 14.6221 53.7225 14.4116 54.0448 14.4116H55.2264C57.697 14.4116 59.0935 13.2537 59.4157 10.9379C59.6306 9.99056 59.4157 9.14845 58.986 8.62214C58.3415 8.09582 57.3748 7.78003 56.1932 7.78003ZM56.6228 11.2537C56.408 12.5169 55.4412 12.5169 54.4745 12.5169H53.83L54.2596 10.0958C54.2596 9.99056 54.3671 9.88529 54.5819 9.88529H54.7967C55.4412 9.88529 56.0858 9.88529 56.408 10.3063C56.6228 10.4116 56.6228 10.7274 56.6228 11.2537Z" fill="#139AD6"/>
    <path d="M28.1572 7.38013H24.2715C24.0429 7.38013 23.8144 7.6087 23.7001 7.83727L22.1001 17.8944C22.1001 18.123 22.2144 18.2372 22.443 18.2372H24.2715C24.5001 18.2372 24.7287 18.0087 24.8429 17.7801L25.3001 15.0372C25.3001 14.8087 25.5287 14.5801 25.8715 14.5801H27.1287C29.7572 14.5801 31.2429 13.323 31.5858 10.8087C31.8144 9.78012 31.5858 8.86584 31.1286 8.29441C30.4429 7.72298 29.5286 7.38013 28.1572 7.38013ZM28.6144 11.1515C28.3858 12.523 27.3572 12.523 26.3287 12.523H25.7572L26.2144 9.89441C26.2144 9.78012 26.3287 9.66583 26.5572 9.66583H26.7858C27.4715 9.66583 28.1572 9.66583 28.5001 10.123C28.6144 10.2373 28.7287 10.5801 28.6144 11.1515Z" fill="#263B80"/>
    <path d="M39.9287 11.0374H38.1001C37.9858 11.0374 37.7573 11.1517 37.7573 11.266L37.643 11.8374L37.5287 11.6088C37.0716 11.0374 36.2716 10.8088 35.3573 10.8088C33.3001 10.8088 31.4716 12.4088 31.1287 14.5803C30.9002 15.7231 31.243 16.7517 31.8144 17.4374C32.3859 18.1231 33.1859 18.3517 34.2144 18.3517C35.9287 18.3517 36.843 17.3231 36.843 17.3231L36.7287 17.8945C36.7287 18.1231 36.843 18.2374 37.0716 18.2374H38.7858C39.0144 18.2374 39.243 18.0088 39.3573 17.7802L40.3858 11.3803C40.2716 11.266 40.043 11.0374 39.9287 11.0374ZM37.3001 14.6945C37.0716 15.7231 36.2716 16.5231 35.1287 16.5231C34.5573 16.5231 34.1001 16.2945 33.8716 16.066C33.643 15.7231 33.5287 15.266 33.5287 14.6945C33.643 13.666 34.5573 12.866 35.5859 12.866C36.1573 12.866 36.5001 13.0945 36.843 13.3231C37.1858 13.666 37.3001 14.2374 37.3001 14.6945Z" fill="#263B80"/>
    <path d="M68.01 11.0225H66.0498C65.9273 11.0225 65.6823 11.1437 65.6823 11.2649L65.5598 11.8709L65.4373 11.6285C64.9472 11.0225 64.0897 10.78 63.1096 10.78C60.9044 10.78 58.9443 12.477 58.5767 14.78C58.3317 15.9922 58.6993 17.0831 59.3118 17.8103C59.9243 18.5376 60.7819 18.78 61.8845 18.78C63.7221 18.78 64.7022 17.6891 64.7022 17.6891L64.5797 18.2952C64.5797 18.5376 64.7022 18.6588 64.9472 18.6588H66.7849C67.0299 18.6588 67.2749 18.4164 67.3974 18.174L68.5 11.3861C68.3775 11.2649 68.255 11.0225 68.01 11.0225ZM65.1922 14.9012C64.9472 15.9921 64.0897 16.8406 62.8646 16.8406C62.252 16.8406 61.762 16.5982 61.517 16.3558C61.2719 15.9922 61.1494 15.5073 61.1494 14.9012C61.272 13.8103 62.252 12.9618 63.3546 12.9618C63.9672 12.9618 64.3347 13.2043 64.7022 13.4467C65.1922 13.8103 65.3148 14.4164 65.1922 14.9012Z" fill="#139AD6"/>
    <path d="M50.2137 10.78H48.2899C48.0636 10.78 47.9504 10.895 47.8372 11.0099L45.3476 14.918L44.216 11.2398C44.1028 11.0099 43.9896 10.895 43.6501 10.895H41.8395C41.6132 10.895 41.5 11.1249 41.5 11.3547L43.537 17.4467L41.6132 20.2053C41.5 20.4352 41.6132 20.78 41.8395 20.78H43.6501C43.8765 20.78 43.9896 20.6651 44.1028 20.5501L50.3269 11.4697C50.6664 11.1249 50.44 10.78 50.2137 10.78Z" fill="#263B80"/>
    <path d="M70.0556 8.05589L68.5 18.4341C68.5 18.6647 68.6111 18.78 68.8333 18.78H70.3889C70.6111 18.78 70.8333 18.5494 70.9444 18.3188L72.5 8.17121C72.5 7.94058 72.3889 7.82527 72.1667 7.82527H70.3889C70.2778 7.70995 70.1667 7.82527 70.0556 8.05589Z" fill="#139AD6"/>
    <path d="M13.5638 4.13214C12.7686 3.23073 11.2918 2.78003 9.24706 2.78003H3.56715C3.22636 2.78003 2.88556 3.11806 2.77196 3.45608L0.5 18.2166C0.5 18.5547 0.727196 18.78 0.954393 18.78H4.47594L5.38472 13.2589V13.4843C5.49832 13.1462 5.83911 12.8082 6.17991 12.8082H7.88388C11.1782 12.8082 13.6774 11.4561 14.4726 7.73777C14.4726 7.6251 14.4726 7.51242 14.4726 7.39975C14.359 7.39975 14.359 7.39975 14.4726 7.39975C14.5862 5.93496 14.359 5.03355 13.5638 4.13214Z" fill="#263B80"/>
    <path d="M14.212 6.78003C14.212 6.89768 14.212 7.01532 14.212 7.13297C13.4566 11.133 11.0826 12.4271 7.95314 12.4271H6.33448C6.01075 12.4271 5.68702 12.78 5.57911 13.133L4.5 20.3094C4.5 20.5447 4.60791 20.78 4.93164 20.78H7.73732C8.06105 20.78 8.38479 20.5447 8.38479 20.1918V20.0741L8.92434 16.4271V16.1918C8.92434 15.8389 9.24807 15.6036 9.57181 15.6036H10.0034C12.7012 15.6036 14.8594 14.4271 15.399 10.8977C15.6148 9.48591 15.5069 8.19179 14.8594 7.36826C14.7515 7.13297 14.5357 6.89768 14.212 6.78003Z" fill="#139AD6"/>
    <path d="M13.5 7.13003C13.3889 7.13003 13.2778 7.01336 13.1667 7.01336C13.0556 7.01336 12.9444 7.01336 12.8333 6.89669C12.3889 6.78003 11.9444 6.78003 11.3889 6.78003H7.05556C6.94444 6.78003 6.83333 6.78003 6.72222 6.89669C6.5 7.01336 6.38889 7.24669 6.38889 7.48003L5.5 13.5467V13.78C5.61111 13.43 5.94444 13.08 6.27778 13.08H7.94444C11.1667 13.08 13.6111 11.68 14.3889 7.83003C14.3889 7.71336 14.3889 7.59669 14.5 7.48003C14.2778 7.36336 14.1667 7.2467 13.9444 7.2467C13.6111 7.13003 13.6111 7.13003 13.5 7.13003Z" fill="#232C65"/>
</svg>
