<svg width="642" height="44" viewBox="0 0 642 44" fill="none" xmlns="http://www.w3.org/2000/svg">
    <g opacity="0.5">
        <path d="M18.9409 14.5043H3.30895C2.93302 14.5043 2.6293 14.808 2.6293 15.1839V30.8159C2.6293 31.1918 2.93302 31.4955 3.30895 31.4955H18.9409C19.3168 31.4955 19.6205 31.1918 19.6205 30.8159V15.1839C19.6205 14.808 19.3168 14.5043 18.9409 14.5043ZM16.9784 19.4636H15.6212C14.5572 19.4636 14.3511 19.9691 14.3511 20.7124V22.35H16.8913L16.56 24.9135H14.3511V31.4955H11.7026V24.9157H9.48739V22.35H11.7026V20.4597C11.7026 18.2657 13.0428 17.07 15.0011 17.07C15.9398 17.07 16.7448 17.14 16.9805 17.1719V19.4636H16.9784Z" fill="white"/>
    </g>
    <g opacity="0.5">
        <path d="M37 20.1362C35.423 20.1362 34.1361 21.4231 34.1361 23.0001C34.1361 24.577 35.423 25.8639 37 25.8639C38.5769 25.8639 39.8638 24.577 39.8638 23.0001C39.8638 21.4231 38.5769 20.1362 37 20.1362ZM45.5894 23.0001C45.5894 21.8141 45.6002 20.6389 45.5336 19.4551C45.467 18.0801 45.1533 16.8598 44.1478 15.8543C43.1402 14.8467 41.9221 14.5352 40.5471 14.4686C39.3611 14.402 38.1859 14.4127 37.0021 14.4127C35.8162 14.4127 34.641 14.402 33.4572 14.4686C32.0822 14.5352 30.8619 14.8489 29.8564 15.8543C28.8488 16.862 28.5373 18.0801 28.4707 19.4551C28.4041 20.6411 28.4148 21.8163 28.4148 23.0001C28.4148 24.1838 28.4041 25.3612 28.4707 26.545C28.5373 27.92 28.851 29.1403 29.8564 30.1458C30.864 31.1534 32.0822 31.4649 33.4572 31.5315C34.6431 31.5981 35.8183 31.5874 37.0021 31.5874C38.1881 31.5874 39.3633 31.5981 40.5471 31.5315C41.9221 31.4649 43.1424 31.1512 44.1478 30.1458C45.1555 29.1381 45.467 27.92 45.5336 26.545C45.6023 25.3612 45.5894 24.186 45.5894 23.0001ZM37 27.4065C34.5615 27.4065 32.5935 25.4385 32.5935 23.0001C32.5935 20.5616 34.5615 18.5936 37 18.5936C39.4385 18.5936 41.4064 20.5616 41.4064 23.0001C41.4064 25.4385 39.4385 27.4065 37 27.4065ZM41.5869 19.4422C41.0176 19.4422 40.5578 18.9825 40.5578 18.4131C40.5578 17.8438 41.0176 17.384 41.5869 17.384C42.1562 17.384 42.616 17.8438 42.616 18.4131C42.6162 18.5483 42.5897 18.6822 42.538 18.8072C42.4863 18.9321 42.4106 19.0456 42.315 19.1412C42.2194 19.2368 42.1059 19.3126 41.9809 19.3642C41.856 19.4159 41.7221 19.4424 41.5869 19.4422Z" fill="white"/>
    </g>
    <path opacity="0.6" d="M485.897 22.51C485.897 21.83 486.054 21.22 486.367 20.68C486.687 20.14 487.117 19.72 487.657 19.42C488.204 19.1133 488.801 18.96 489.447 18.96C490.187 18.96 490.844 19.1433 491.417 19.51C491.997 19.87 492.417 20.3833 492.677 21.05H491.307C491.127 20.6833 490.877 20.41 490.557 20.23C490.237 20.05 489.867 19.96 489.447 19.96C488.987 19.96 488.577 20.0633 488.217 20.27C487.857 20.4767 487.574 20.7733 487.367 21.16C487.167 21.5467 487.067 21.9967 487.067 22.51C487.067 23.0233 487.167 23.4733 487.367 23.86C487.574 24.2467 487.857 24.5467 488.217 24.76C488.577 24.9667 488.987 25.07 489.447 25.07C489.867 25.07 490.237 24.98 490.557 24.8C490.877 24.62 491.127 24.3467 491.307 23.98H492.677C492.417 24.6467 491.997 25.16 491.417 25.52C490.844 25.88 490.187 26.06 489.447 26.06C488.794 26.06 488.197 25.91 487.657 25.61C487.117 25.3033 486.687 24.88 486.367 24.34C486.054 23.8 485.897 23.19 485.897 22.51ZM496.402 26.09C495.882 26.09 495.412 25.9733 494.992 25.74C494.572 25.5 494.242 25.1667 494.002 24.74C493.762 24.3067 493.642 23.8067 493.642 23.24C493.642 22.68 493.765 22.1833 494.012 21.75C494.258 21.3167 494.595 20.9833 495.022 20.75C495.448 20.5167 495.925 20.4 496.452 20.4C496.978 20.4 497.455 20.5167 497.882 20.75C498.308 20.9833 498.645 21.3167 498.892 21.75C499.138 22.1833 499.262 22.68 499.262 23.24C499.262 23.8 499.135 24.2967 498.882 24.73C498.628 25.1633 498.282 25.5 497.842 25.74C497.408 25.9733 496.928 26.09 496.402 26.09ZM496.402 25.1C496.695 25.1 496.968 25.03 497.222 24.89C497.482 24.75 497.692 24.54 497.852 24.26C498.012 23.98 498.092 23.64 498.092 23.24C498.092 22.84 498.015 22.5033 497.862 22.23C497.708 21.95 497.505 21.74 497.252 21.6C496.998 21.46 496.725 21.39 496.432 21.39C496.138 21.39 495.865 21.46 495.612 21.6C495.365 21.74 495.168 21.95 495.022 22.23C494.875 22.5033 494.802 22.84 494.802 23.24C494.802 23.8333 494.952 24.2933 495.252 24.62C495.558 24.94 495.942 25.1 496.402 25.1ZM501.529 21.3C501.722 21.0467 501.985 20.8333 502.319 20.66C502.652 20.4867 503.029 20.4 503.449 20.4C503.929 20.4 504.365 20.52 504.759 20.76C505.159 20.9933 505.472 21.3233 505.699 21.75C505.925 22.1767 506.039 22.6667 506.039 23.22C506.039 23.7733 505.925 24.27 505.699 24.71C505.472 25.1433 505.159 25.4833 504.759 25.73C504.365 25.97 503.929 26.09 503.449 26.09C503.029 26.09 502.655 26.0067 502.329 25.84C502.002 25.6667 501.735 25.4533 501.529 25.2V28.62H500.389V20.49H501.529V21.3ZM504.879 23.22C504.879 22.84 504.799 22.5133 504.639 22.24C504.485 21.96 504.279 21.75 504.019 21.61C503.765 21.4633 503.492 21.39 503.199 21.39C502.912 21.39 502.639 21.4633 502.379 21.61C502.125 21.7567 501.919 21.97 501.759 22.25C501.605 22.53 501.529 22.86 501.529 23.24C501.529 23.62 501.605 23.9533 501.759 24.24C501.919 24.52 502.125 24.7333 502.379 24.88C502.639 25.0267 502.912 25.1 503.199 25.1C503.492 25.1 503.765 25.0267 504.019 24.88C504.279 24.7267 504.485 24.5067 504.639 24.22C504.799 23.9333 504.879 23.6 504.879 23.22ZM512.126 20.49L508.746 28.59H507.566L508.686 25.91L506.516 20.49H507.786L509.336 24.69L510.946 20.49H512.126ZM514.126 21.29C514.293 21.01 514.513 20.7933 514.786 20.64C515.066 20.48 515.396 20.4 515.776 20.4V21.58H515.486C515.04 21.58 514.7 21.6933 514.466 21.92C514.24 22.1467 514.126 22.54 514.126 23.1V26H512.986V20.49H514.126V21.29ZM517.404 19.76C517.198 19.76 517.024 19.69 516.884 19.55C516.744 19.41 516.674 19.2367 516.674 19.03C516.674 18.8233 516.744 18.65 516.884 18.51C517.024 18.37 517.198 18.3 517.404 18.3C517.604 18.3 517.774 18.37 517.914 18.51C518.054 18.65 518.124 18.8233 518.124 19.03C518.124 19.2367 518.054 19.41 517.914 19.55C517.774 19.69 517.604 19.76 517.404 19.76ZM517.964 20.49V26H516.824V20.49H517.964ZM521.681 20.4C522.108 20.4 522.484 20.4867 522.811 20.66C523.144 20.8267 523.404 21.0367 523.591 21.29V20.49H524.741V26.09C524.741 26.5967 524.634 27.0467 524.421 27.44C524.208 27.84 523.898 28.1533 523.491 28.38C523.091 28.6067 522.611 28.72 522.051 28.72C521.304 28.72 520.684 28.5433 520.191 28.19C519.698 27.8433 519.418 27.37 519.351 26.77H520.481C520.568 27.0567 520.751 27.2867 521.031 27.46C521.318 27.64 521.658 27.73 522.051 27.73C522.511 27.73 522.881 27.59 523.161 27.31C523.448 27.03 523.591 26.6233 523.591 26.09V25.17C523.398 25.43 523.134 25.65 522.801 25.83C522.474 26.0033 522.101 26.09 521.681 26.09C521.201 26.09 520.761 25.97 520.361 25.73C519.968 25.4833 519.654 25.1433 519.421 24.71C519.194 24.27 519.081 23.7733 519.081 23.22C519.081 22.6667 519.194 22.1767 519.421 21.75C519.654 21.3233 519.968 20.9933 520.361 20.76C520.761 20.52 521.201 20.4 521.681 20.4ZM523.591 23.24C523.591 22.86 523.511 22.53 523.351 22.25C523.198 21.97 522.994 21.7567 522.741 21.61C522.488 21.4633 522.214 21.39 521.921 21.39C521.628 21.39 521.354 21.4633 521.101 21.61C520.848 21.75 520.641 21.96 520.481 22.24C520.328 22.5133 520.251 22.84 520.251 23.22C520.251 23.6 520.328 23.9333 520.481 24.22C520.641 24.5067 520.848 24.7267 521.101 24.88C521.361 25.0267 521.634 25.1 521.921 25.1C522.214 25.1 522.488 25.0267 522.741 24.88C522.994 24.7333 523.198 24.52 523.351 24.24C523.511 23.9533 523.591 23.62 523.591 23.24ZM529.088 20.4C529.508 20.4 529.882 20.49 530.208 20.67C530.542 20.85 530.802 21.1167 530.988 21.47C531.182 21.8233 531.278 22.25 531.278 22.75V26H530.148V22.92C530.148 22.4267 530.025 22.05 529.778 21.79C529.532 21.5233 529.195 21.39 528.768 21.39C528.342 21.39 528.002 21.5233 527.748 21.79C527.502 22.05 527.378 22.4267 527.378 22.92V26H526.238V18.6H527.378V21.13C527.572 20.8967 527.815 20.7167 528.108 20.59C528.408 20.4633 528.735 20.4 529.088 20.4ZM534.062 21.42V24.47C534.062 24.6767 534.109 24.8267 534.202 24.92C534.302 25.0067 534.469 25.05 534.702 25.05H535.402V26H534.502C533.989 26 533.596 25.88 533.322 25.64C533.049 25.4 532.912 25.01 532.912 24.47V21.42H532.262V20.49H532.912V19.12H534.062V20.49H535.402V21.42H534.062ZM542.251 18.96C542.931 18.96 543.534 19.1133 544.061 19.42C544.587 19.72 544.997 20.14 545.291 20.68C545.584 21.22 545.731 21.8333 545.731 22.52C545.731 23.2067 545.584 23.8233 545.291 24.37C544.997 24.91 544.587 25.3333 544.061 25.64C543.534 25.94 542.931 26.09 542.251 26.09C541.571 26.09 540.964 25.94 540.431 25.64C539.904 25.3333 539.494 24.91 539.201 24.37C538.907 23.8233 538.761 23.2067 538.761 22.52C538.761 21.8333 538.907 21.22 539.201 20.68C539.494 20.14 539.904 19.72 540.431 19.42C540.964 19.1133 541.571 18.96 542.251 18.96ZM542.251 19.42C541.644 19.42 541.114 19.5467 540.661 19.8C540.214 20.0533 539.867 20.4167 539.621 20.89C539.381 21.3567 539.261 21.9 539.261 22.52C539.261 23.14 539.381 23.6833 539.621 24.15C539.867 24.6167 540.214 24.98 540.661 25.24C541.114 25.5 541.644 25.63 542.251 25.63C542.851 25.63 543.374 25.5 543.821 25.24C544.274 24.98 544.621 24.6167 544.861 24.15C545.107 23.6833 545.231 23.14 545.231 22.52C545.231 21.9 545.107 21.3567 544.861 20.89C544.621 20.4167 544.277 20.0533 543.831 19.8C543.384 19.5467 542.857 19.42 542.251 19.42ZM542.221 20.22C541.814 20.22 541.444 20.3167 541.111 20.51C540.777 20.6967 540.514 20.9633 540.321 21.31C540.134 21.6567 540.041 22.0567 540.041 22.51C540.041 22.9633 540.137 23.3667 540.331 23.72C540.524 24.0667 540.784 24.3367 541.111 24.53C541.444 24.7167 541.814 24.81 542.221 24.81C542.727 24.81 543.164 24.6767 543.531 24.41C543.897 24.1367 544.144 23.78 544.271 23.34H543.231C543.144 23.5533 543.021 23.7167 542.861 23.83C542.701 23.9433 542.487 24 542.221 24C541.867 24 541.584 23.8733 541.371 23.62C541.157 23.36 541.051 22.99 541.051 22.51C541.051 22.03 541.157 21.6633 541.371 21.41C541.584 21.1567 541.867 21.03 542.221 21.03C542.474 21.03 542.687 21.0867 542.861 21.2C543.041 21.3133 543.164 21.4767 543.231 21.69H544.271C544.144 21.2233 543.901 20.8633 543.541 20.61C543.181 20.35 542.741 20.22 542.221 20.22ZM550.019 24.45C550.659 23.8967 551.162 23.4433 551.529 23.09C551.902 22.73 552.212 22.3567 552.459 21.97C552.706 21.5833 552.829 21.1967 552.829 20.81C552.829 20.41 552.732 20.0967 552.539 19.87C552.352 19.6433 552.056 19.53 551.649 19.53C551.256 19.53 550.949 19.6567 550.729 19.91C550.516 20.1567 550.402 20.49 550.389 20.91H549.289C549.309 20.15 549.536 19.57 549.969 19.17C550.409 18.7633 550.966 18.56 551.639 18.56C552.366 18.56 552.932 18.76 553.339 19.16C553.752 19.56 553.959 20.0933 553.959 20.76C553.959 21.24 553.836 21.7033 553.589 22.15C553.349 22.59 553.059 22.9867 552.719 23.34C552.386 23.6867 551.959 24.09 551.439 24.55L550.989 24.95H554.159V25.9H549.299V25.07L550.019 24.45ZM555.161 22.26C555.161 21.1067 555.354 20.2067 555.741 19.56C556.134 18.9067 556.807 18.58 557.761 18.58C558.714 18.58 559.384 18.9067 559.771 19.56C560.164 20.2067 560.361 21.1067 560.361 22.26C560.361 23.4267 560.164 24.34 559.771 25C559.384 25.6533 558.714 25.98 557.761 25.98C556.807 25.98 556.134 25.6533 555.741 25C555.354 24.34 555.161 23.4267 555.161 22.26ZM559.241 22.26C559.241 21.72 559.204 21.2633 559.131 20.89C559.064 20.5167 558.924 20.2133 558.711 19.98C558.497 19.74 558.181 19.62 557.761 19.62C557.341 19.62 557.024 19.74 556.811 19.98C556.597 20.2133 556.454 20.5167 556.381 20.89C556.314 21.2633 556.281 21.72 556.281 22.26C556.281 22.82 556.314 23.29 556.381 23.67C556.447 24.05 556.587 24.3567 556.801 24.59C557.021 24.8233 557.341 24.94 557.761 24.94C558.181 24.94 558.497 24.8233 558.711 24.59C558.931 24.3567 559.074 24.05 559.141 23.67C559.207 23.29 559.241 22.82 559.241 22.26ZM562.197 24.45C562.837 23.8967 563.34 23.4433 563.707 23.09C564.08 22.73 564.39 22.3567 564.637 21.97C564.883 21.5833 565.007 21.1967 565.007 20.81C565.007 20.41 564.91 20.0967 564.717 19.87C564.53 19.6433 564.233 19.53 563.827 19.53C563.433 19.53 563.127 19.6567 562.907 19.91C562.693 20.1567 562.58 20.49 562.567 20.91H561.467C561.487 20.15 561.713 19.57 562.147 19.17C562.587 18.7633 563.143 18.56 563.817 18.56C564.543 18.56 565.11 18.76 565.517 19.16C565.93 19.56 566.137 20.0933 566.137 20.76C566.137 21.24 566.013 21.7033 565.767 22.15C565.527 22.59 565.237 22.9867 564.897 23.34C564.563 23.6867 564.137 24.09 563.617 24.55L563.167 24.95H566.337V25.9H561.477V25.07L562.197 24.45ZM567.338 22.26C567.338 21.1067 567.532 20.2067 567.918 19.56C568.312 18.9067 568.985 18.58 569.938 18.58C570.892 18.58 571.562 18.9067 571.948 19.56C572.342 20.2067 572.538 21.1067 572.538 22.26C572.538 23.4267 572.342 24.34 571.948 25C571.562 25.6533 570.892 25.98 569.938 25.98C568.985 25.98 568.312 25.6533 567.918 25C567.532 24.34 567.338 23.4267 567.338 22.26ZM571.418 22.26C571.418 21.72 571.382 21.2633 571.308 20.89C571.242 20.5167 571.102 20.2133 570.888 19.98C570.675 19.74 570.358 19.62 569.938 19.62C569.518 19.62 569.202 19.74 568.988 19.98C568.775 20.2133 568.632 20.5167 568.558 20.89C568.492 21.2633 568.458 21.72 568.458 22.26C568.458 22.82 568.492 23.29 568.558 23.67C568.625 24.05 568.765 24.3567 568.978 24.59C569.198 24.8233 569.518 24.94 569.938 24.94C570.358 24.94 570.675 24.8233 570.888 24.59C571.108 24.3567 571.252 24.05 571.318 23.67C571.385 23.29 571.418 22.82 571.418 22.26ZM578.782 26.07C578.316 26.07 577.896 25.99 577.522 25.83C577.149 25.6633 576.856 25.43 576.642 25.13C576.429 24.83 576.322 24.48 576.322 24.08H577.542C577.569 24.38 577.686 24.6267 577.892 24.82C578.106 25.0133 578.402 25.11 578.782 25.11C579.176 25.11 579.482 25.0167 579.702 24.83C579.922 24.6367 580.032 24.39 580.032 24.09C580.032 23.8567 579.962 23.6667 579.822 23.52C579.689 23.3733 579.519 23.26 579.312 23.18C579.112 23.1 578.832 23.0133 578.472 22.92C578.019 22.8 577.649 22.68 577.362 22.56C577.082 22.4333 576.842 22.24 576.642 21.98C576.442 21.72 576.342 21.3733 576.342 20.94C576.342 20.54 576.442 20.19 576.642 19.89C576.842 19.59 577.122 19.36 577.482 19.2C577.842 19.04 578.259 18.96 578.732 18.96C579.406 18.96 579.956 19.13 580.382 19.47C580.816 19.8033 581.056 20.2633 581.102 20.85H579.842C579.822 20.5967 579.702 20.38 579.482 20.2C579.262 20.02 578.972 19.93 578.612 19.93C578.286 19.93 578.019 20.0133 577.812 20.18C577.606 20.3467 577.502 20.5867 577.502 20.9C577.502 21.1133 577.566 21.29 577.692 21.43C577.826 21.5633 577.992 21.67 578.192 21.75C578.392 21.83 578.666 21.9167 579.012 22.01C579.472 22.1367 579.846 22.2633 580.132 22.39C580.426 22.5167 580.672 22.7133 580.872 22.98C581.079 23.24 581.182 23.59 581.182 24.03C581.182 24.3833 581.086 24.7167 580.892 25.03C580.706 25.3433 580.429 25.5967 580.062 25.79C579.702 25.9767 579.276 26.07 578.782 26.07ZM585.377 20.4C585.797 20.4 586.171 20.49 586.497 20.67C586.831 20.85 587.091 21.1167 587.277 21.47C587.471 21.8233 587.567 22.25 587.567 22.75V26H586.437V22.92C586.437 22.4267 586.314 22.05 586.067 21.79C585.821 21.5233 585.484 21.39 585.057 21.39C584.631 21.39 584.291 21.5233 584.037 21.79C583.791 22.05 583.667 22.4267 583.667 22.92V26H582.527V18.6H583.667V21.13C583.861 20.8967 584.104 20.7167 584.397 20.59C584.697 20.4633 585.024 20.4 585.377 20.4ZM591.411 26.09C590.891 26.09 590.421 25.9733 590.001 25.74C589.581 25.5 589.251 25.1667 589.011 24.74C588.771 24.3067 588.651 23.8067 588.651 23.24C588.651 22.68 588.775 22.1833 589.021 21.75C589.268 21.3167 589.605 20.9833 590.031 20.75C590.458 20.5167 590.935 20.4 591.461 20.4C591.988 20.4 592.465 20.5167 592.891 20.75C593.318 20.9833 593.655 21.3167 593.901 21.75C594.148 22.1833 594.271 22.68 594.271 23.24C594.271 23.8 594.145 24.2967 593.891 24.73C593.638 25.1633 593.291 25.5 592.851 25.74C592.418 25.9733 591.938 26.09 591.411 26.09ZM591.411 25.1C591.705 25.1 591.978 25.03 592.231 24.89C592.491 24.75 592.701 24.54 592.861 24.26C593.021 23.98 593.101 23.64 593.101 23.24C593.101 22.84 593.025 22.5033 592.871 22.23C592.718 21.95 592.515 21.74 592.261 21.6C592.008 21.46 591.735 21.39 591.441 21.39C591.148 21.39 590.875 21.46 590.621 21.6C590.375 21.74 590.178 21.95 590.031 22.23C589.885 22.5033 589.811 22.84 589.811 23.24C589.811 23.8333 589.961 24.2933 590.261 24.62C590.568 24.94 590.951 25.1 591.411 25.1ZM596.538 21.3C596.732 21.0467 596.995 20.8333 597.328 20.66C597.662 20.4867 598.038 20.4 598.458 20.4C598.938 20.4 599.375 20.52 599.768 20.76C600.168 20.9933 600.482 21.3233 600.708 21.75C600.935 22.1767 601.048 22.6667 601.048 23.22C601.048 23.7733 600.935 24.27 600.708 24.71C600.482 25.1433 600.168 25.4833 599.768 25.73C599.375 25.97 598.938 26.09 598.458 26.09C598.038 26.09 597.665 26.0067 597.338 25.84C597.012 25.6667 596.745 25.4533 596.538 25.2V28.62H595.398V20.49H596.538V21.3ZM599.888 23.22C599.888 22.84 599.808 22.5133 599.648 22.24C599.495 21.96 599.288 21.75 599.028 21.61C598.775 21.4633 598.502 21.39 598.208 21.39C597.922 21.39 597.648 21.4633 597.388 21.61C597.135 21.7567 596.928 21.97 596.768 22.25C596.615 22.53 596.538 22.86 596.538 23.24C596.538 23.62 596.615 23.9533 596.768 24.24C596.928 24.52 597.135 24.7333 597.388 24.88C597.648 25.0267 597.922 25.1 598.208 25.1C598.502 25.1 598.775 25.0267 599.028 24.88C599.288 24.7267 599.495 24.5067 599.648 24.22C599.808 23.9333 599.888 23.6 599.888 23.22ZM609.633 21.12C609.633 21.4733 609.55 21.8067 609.383 22.12C609.217 22.4333 608.95 22.69 608.583 22.89C608.217 23.0833 607.747 23.18 607.173 23.18H605.913V26H604.773V19.05H607.173C607.707 19.05 608.157 19.1433 608.523 19.33C608.897 19.51 609.173 19.7567 609.353 20.07C609.54 20.3833 609.633 20.7333 609.633 21.12ZM607.173 22.25C607.607 22.25 607.93 22.1533 608.143 21.96C608.357 21.76 608.463 21.48 608.463 21.12C608.463 20.36 608.033 19.98 607.173 19.98H605.913V22.25H607.173ZM612.051 21.42V24.47C612.051 24.6767 612.097 24.8267 612.191 24.92C612.291 25.0067 612.457 25.05 612.691 25.05H613.391V26H612.491C611.977 26 611.584 25.88 611.311 25.64C611.037 25.4 610.901 25.01 610.901 24.47V21.42H610.251V20.49H610.901V19.12H612.051V20.49H613.391V21.42H612.051ZM619.401 20.49L616.021 28.59H614.841L615.961 25.91L613.791 20.49H615.061L616.611 24.69L618.221 20.49H619.401ZM620.722 26.07C620.515 26.07 620.342 26 620.202 25.86C620.062 25.72 619.992 25.5467 619.992 25.34C619.992 25.1333 620.062 24.96 620.202 24.82C620.342 24.68 620.515 24.61 620.722 24.61C620.922 24.61 621.092 24.68 621.232 24.82C621.372 24.96 621.442 25.1333 621.442 25.34C621.442 25.5467 621.372 25.72 621.232 25.86C621.092 26 620.922 26.07 620.722 26.07ZM626.411 25.08H628.761V26H625.271V19.05H626.411V25.08ZM631.045 21.42V24.47C631.045 24.6767 631.092 24.8267 631.185 24.92C631.285 25.0067 631.452 25.05 631.685 25.05H632.385V26H631.485C630.972 26 630.578 25.88 630.305 25.64C630.032 25.4 629.895 25.01 629.895 24.47V21.42H629.245V20.49H629.895V19.12H631.045V20.49H632.385V21.42H631.045ZM633.056 23.22C633.056 22.6667 633.169 22.1767 633.396 21.75C633.629 21.3233 633.942 20.9933 634.336 20.76C634.736 20.52 635.179 20.4 635.666 20.4C636.026 20.4 636.379 20.48 636.726 20.64C637.079 20.7933 637.359 21 637.566 21.26V18.6H638.716V26H637.566V25.17C637.379 25.4367 637.119 25.6567 636.786 25.83C636.459 26.0033 636.082 26.09 635.656 26.09C635.176 26.09 634.736 25.97 634.336 25.73C633.942 25.4833 633.629 25.1433 633.396 24.71C633.169 24.27 633.056 23.7733 633.056 23.22ZM637.566 23.24C637.566 22.86 637.486 22.53 637.326 22.25C637.172 21.97 636.969 21.7567 636.716 21.61C636.462 21.4633 636.189 21.39 635.896 21.39C635.602 21.39 635.329 21.4633 635.076 21.61C634.822 21.75 634.616 21.96 634.456 22.24C634.302 22.5133 634.226 22.84 634.226 23.22C634.226 23.6 634.302 23.9333 634.456 24.22C634.616 24.5067 634.822 24.7267 635.076 24.88C635.336 25.0267 635.609 25.1 635.896 25.1C636.189 25.1 636.462 25.0267 636.716 24.88C636.969 24.7333 637.172 24.52 637.326 24.24C637.486 23.9533 637.566 23.62 637.566 23.24ZM640.673 26.07C640.466 26.07 640.293 26 640.153 25.86C640.013 25.72 639.943 25.5467 639.943 25.34C639.943 25.1333 640.013 24.96 640.153 24.82C640.293 24.68 640.466 24.61 640.673 24.61C640.873 24.61 641.043 24.68 641.183 24.82C641.323 24.96 641.393 25.1333 641.393 25.34C641.393 25.5467 641.323 25.72 641.183 25.86C641.043 26 640.873 26.07 640.673 26.07Z" fill="white"/>
    <g clip-path="url(#clip0_2493_5696)">
        <path d="M261.071 14.7446C261.071 13.2288 262.314 12 263.847 12H291.609C293.142 12 294.385 13.2288 294.385 14.7446V31.2124C294.385 32.7282 293.142 33.957 291.609 33.957H263.847C262.314 33.957 261.071 32.7282 261.071 31.2124V14.7446Z" fill="#D8E3F3"/>
        <path d="M289.742 18.8827H287.997C287.469 18.8827 287.064 19.0432 286.82 19.5648L283.492 27.0684H285.846C285.846 27.0684 286.252 26.0653 286.333 25.8245C286.577 25.8245 288.89 25.8245 289.215 25.8245C289.296 26.1054 289.499 27.0283 289.499 27.0283H291.609L289.742 18.8827ZM286.982 24.1392C287.185 23.6577 287.875 21.852 287.875 21.852C287.875 21.8921 288.078 21.3705 288.159 21.0896L288.322 21.8119C288.322 21.8119 288.768 23.7781 288.849 24.1793H286.982V24.1392Z" fill="#3362AB"/>
        <path d="M283.654 24.3819C283.654 26.0672 282.112 27.1908 279.717 27.1908C278.702 27.1908 277.728 26.9901 277.201 26.7494L277.525 24.9036L277.809 25.024C278.54 25.345 279.027 25.4653 279.92 25.4653C280.569 25.4653 281.259 25.2246 281.259 24.6628C281.259 24.3017 280.975 24.0609 280.082 23.6597C279.23 23.2584 278.093 22.6164 278.093 21.4527C278.093 19.8477 279.676 18.7643 281.909 18.7643C282.761 18.7643 283.492 18.9248 283.938 19.1254L283.613 20.891L283.451 20.7305C283.045 20.57 282.518 20.4095 281.746 20.4095C280.894 20.4496 280.488 20.8107 280.488 21.1317C280.488 21.4929 280.975 21.7737 281.746 22.1349C283.045 22.7368 283.654 23.4189 283.654 24.3819Z" fill="#3362AB"/>
        <path d="M263.847 18.9642L263.888 18.8037H267.378C267.865 18.8037 268.231 18.9642 268.353 19.4859L269.124 23.0972C268.353 21.1712 266.567 19.6062 263.847 18.9642Z" fill="#F9B50B"/>
        <path d="M274.035 18.8844L270.504 27.03H268.109L266.08 20.2085C267.541 21.1314 268.758 22.576 269.205 23.5791L269.448 24.4218L271.64 18.8442H274.035V18.8844Z" fill="#3362AB"/>
        <path d="M274.968 18.8442H277.201L275.78 27.03H273.548L274.968 18.8442Z" fill="#3362AB"/>
    </g>
    <g clip-path="url(#clip1_2493_5696)">
        <path d="M217 14.7446C217 13.2288 218.271 12 219.839 12H248.232C249.8 12 251.071 13.2288 251.071 14.7446V31.2124C251.071 32.7282 249.8 33.957 248.232 33.957H219.839C218.271 33.957 217 32.7282 217 31.2124V14.7446Z" fill="#CCDEFF"/>
        <path d="M224.645 19.9028C224.289 19.6663 223.825 19.5477 223.252 19.5477H221.034C220.859 19.5477 220.762 19.6326 220.743 19.8023L219.842 25.2695C219.833 25.3232 219.847 25.3723 219.884 25.4169C219.921 25.4617 219.967 25.4839 220.022 25.4839H221.076C221.261 25.4839 221.362 25.3992 221.381 25.2293L221.63 23.7554C221.639 23.684 221.672 23.6259 221.727 23.5812C221.783 23.5365 221.852 23.5073 221.935 23.494C222.018 23.4807 222.097 23.474 222.171 23.474C222.245 23.474 222.333 23.4785 222.434 23.4874C222.536 23.4963 222.601 23.5007 222.628 23.5007C223.423 23.5007 224.047 23.2842 224.5 22.8508C224.953 22.4176 225.179 21.8169 225.179 21.0484C225.179 20.5214 225.001 20.1395 224.645 19.9026V19.9028ZM223.502 21.5444C223.455 21.8571 223.335 22.0625 223.141 22.1608C222.947 22.2592 222.67 22.3082 222.31 22.3082L221.852 22.3215L222.088 20.8877C222.106 20.7895 222.166 20.7404 222.268 20.7404H222.532C222.901 20.7404 223.169 20.7919 223.336 20.8944C223.502 20.9972 223.557 21.2139 223.502 21.5444Z" fill="#003087"/>
        <path d="M248.051 19.5477H247.026C246.924 19.5477 246.864 19.5969 246.846 19.6952L245.944 25.2697L245.931 25.2965C245.931 25.3414 245.949 25.3836 245.986 25.4239C246.023 25.464 246.069 25.4841 246.125 25.4841H247.04C247.215 25.4841 247.312 25.3994 247.331 25.2295L248.232 19.7488V19.7355C248.232 19.6104 248.172 19.5479 248.051 19.5479V19.5477Z" fill="#009CDE"/>
        <path d="M235.659 21.7065C235.659 21.6619 235.64 21.6194 235.603 21.5793C235.566 21.5392 235.525 21.5189 235.478 21.5189H234.411C234.309 21.5189 234.226 21.5638 234.161 21.6529L232.692 23.7434L232.082 21.7334C232.036 21.5906 231.934 21.5189 231.777 21.5189H230.737C230.691 21.5189 230.65 21.5391 230.613 21.5793C230.576 21.6194 230.557 21.662 230.557 21.7065C230.557 21.7245 230.647 21.9879 230.828 22.4971C231.008 23.0065 231.202 23.5559 231.41 24.1456C231.618 24.7351 231.726 25.0479 231.736 25.0834C230.978 26.0841 230.599 26.6201 230.599 26.6914C230.599 26.8077 230.659 26.8656 230.779 26.8656H231.847C231.948 26.8656 232.031 26.8211 232.096 26.7317L235.631 21.8003C235.649 21.7826 235.659 21.7514 235.659 21.7065V21.7065Z" fill="#003087"/>
        <path d="M245.599 21.5169H244.545C244.416 21.5169 244.337 21.6643 244.31 21.9592C244.069 21.602 243.63 21.4231 242.993 21.4231C242.327 21.4231 241.761 21.6643 241.294 22.1468C240.828 22.6292 240.594 23.1966 240.594 23.8487C240.594 24.3759 240.754 24.7957 241.073 25.1083C241.391 25.4212 241.819 25.5773 242.355 25.5773C242.623 25.5773 242.896 25.5236 243.173 25.4165C243.45 25.3093 243.667 25.1664 243.824 24.9877C243.824 24.9967 243.815 25.0367 243.797 25.1081C243.778 25.1797 243.769 25.2335 243.769 25.2689C243.769 25.4121 243.829 25.4833 243.949 25.4833H244.906C245.081 25.4833 245.183 25.3986 245.211 25.2288L245.779 21.7313C245.788 21.6776 245.774 21.6286 245.737 21.5839C245.7 21.5393 245.654 21.5169 245.599 21.5169ZM243.79 24.1569C243.554 24.3802 243.27 24.4918 242.937 24.4918C242.669 24.4918 242.452 24.4205 242.286 24.2775C242.119 24.1348 242.036 23.9383 242.036 23.6878C242.036 23.3576 242.152 23.0781 242.383 22.8504C242.613 22.6225 242.9 22.5087 243.242 22.5087C243.501 22.5087 243.716 22.5824 243.887 22.7297C244.057 22.8771 244.143 23.0804 244.143 23.3395C244.143 23.6611 244.025 23.9336 243.79 24.1569Z" fill="#009CDE"/>
        <path d="M229.851 21.5169H228.797C228.668 21.5169 228.589 21.6643 228.562 21.9592C228.312 21.602 227.873 21.4231 227.245 21.4231C226.579 21.4231 226.013 21.6643 225.547 22.1468C225.08 22.6292 224.846 23.1966 224.846 23.8487C224.846 24.3759 225.006 24.7957 225.325 25.1083C225.644 25.4212 226.071 25.5773 226.607 25.5773C226.866 25.5773 227.134 25.5236 227.411 25.4165C227.688 25.3093 227.91 25.1664 228.076 24.9877C228.039 25.0948 228.021 25.1886 228.021 25.2689C228.021 25.4121 228.081 25.4833 228.201 25.4833H229.158C229.333 25.4833 229.435 25.3986 229.463 25.2288L230.031 21.7313C230.04 21.6776 230.026 21.6286 229.989 21.5839C229.952 21.5393 229.906 21.5169 229.851 21.5169ZM228.042 24.1635C227.806 24.3826 227.517 24.4918 227.175 24.4918C226.907 24.4918 226.692 24.4205 226.531 24.2775C226.369 24.1348 226.288 23.9383 226.288 23.6878C226.288 23.3576 226.404 23.0781 226.635 22.8504C226.866 22.6225 227.152 22.5086 227.494 22.5086C227.753 22.5086 227.968 22.5824 228.139 22.7297C228.31 22.8771 228.395 23.0804 228.395 23.3395C228.395 23.6701 228.277 23.9449 228.042 24.1635Z" fill="#003087"/>
        <path d="M240.393 19.9028C240.037 19.6663 239.573 19.5477 239 19.5477H236.796C236.611 19.5477 236.509 19.6326 236.491 19.8023L235.59 25.2695C235.58 25.3232 235.594 25.3723 235.631 25.4169C235.668 25.4617 235.714 25.4839 235.77 25.4839H236.906C237.017 25.4839 237.091 25.4259 237.128 25.3097L237.378 23.7554C237.387 23.684 237.419 23.6259 237.475 23.5812C237.53 23.5365 237.6 23.5073 237.683 23.494C237.766 23.4807 237.844 23.474 237.918 23.474C237.992 23.474 238.08 23.4785 238.182 23.4874C238.283 23.4963 238.348 23.5007 238.376 23.5007C239.171 23.5007 239.794 23.2842 240.247 22.8508C240.7 22.4176 240.927 21.8169 240.927 21.0484C240.927 20.5214 240.749 20.1395 240.393 19.9026V19.9028ZM238.972 22.1071C238.769 22.2411 238.464 22.3081 238.057 22.3081L237.614 22.3215L237.849 20.8876C237.867 20.7895 237.928 20.7402 238.029 20.7402H238.279C238.482 20.7402 238.644 20.7492 238.764 20.767C238.884 20.785 239 20.8407 239.111 20.9345C239.222 21.0283 239.277 21.1646 239.277 21.3432C239.277 21.7185 239.175 21.973 238.972 22.1071Z" fill="#009CDE"/>
    </g>
    <g clip-path="url(#clip2_2493_5696)">
        <path d="M304.385 14.7446C304.385 13.2288 305.628 12 307.161 12H334.923C336.456 12 337.699 13.2288 337.699 14.7446V31.2124C337.699 32.7282 336.456 33.957 334.923 33.957H307.161C305.628 33.957 304.385 32.7282 304.385 31.2124V14.7446Z" fill="#CCEFFF"/>
        <path d="M324.686 29.4544H317.399V16.5076H324.686V29.4544Z" fill="#6C6BBD"/>
        <path d="M317.866 22.9785C317.866 20.3522 319.11 18.0128 321.047 16.5051C319.63 15.4027 317.843 14.7446 315.9 14.7446C311.301 14.7446 307.572 18.431 307.572 22.9785C307.572 27.526 311.301 31.2124 315.9 31.2124C317.843 31.2124 319.63 30.5544 321.047 29.4519C319.11 27.9443 317.866 25.6048 317.866 22.9785Z" fill="#EB001B"/>
        <path d="M334.513 22.9785C334.513 27.526 330.785 31.2124 326.186 31.2124C324.243 31.2124 322.455 30.5544 321.038 29.4519C322.976 27.9443 324.22 25.6048 324.22 22.9785C324.22 20.3522 322.976 18.0128 321.038 16.5051C322.455 15.4027 324.243 14.7446 326.186 14.7446C330.785 14.7446 334.513 18.431 334.513 22.9785Z" fill="#0099DF"/>
    </g>
    <g clip-path="url(#clip3_2493_5696)">
        <path d="M347.699 14.7446C347.699 13.2288 348.971 12 350.539 12H378.931C380.499 12 381.771 13.2288 381.771 14.7446V31.2124C381.771 32.7282 380.499 33.957 378.931 33.957H350.539C348.971 33.957 347.699 32.7282 347.699 31.2124V14.7446Z" fill="#FCE0CF"/>
        <path d="M367.986 22.964C367.989 22.3741 367.76 21.7833 367.299 21.3382C366.838 20.8921 366.225 20.6711 365.614 20.6746C365.611 20.6746 365.608 20.6744 365.605 20.6744C364.277 20.6744 363.224 21.6924 363.224 22.9764C363.224 24.2477 364.29 25.2781 365.605 25.2781C366.933 25.2781 367.986 24.26 367.986 22.9764C367.986 22.9721 367.986 22.9682 367.986 22.964Z" fill="#F26E21"/>
        <path d="M362.781 23.9507C362.425 24.2951 362.097 24.4297 361.743 24.437C360.881 24.4295 360.247 23.8124 360.247 22.9327C360.247 22.4898 360.421 22.1269 360.696 21.8168C360.953 21.5803 361.285 21.4275 361.667 21.4275C362.079 21.4275 362.4 21.5603 362.766 21.9144V20.8963C362.4 20.7193 362.079 20.6307 361.667 20.6307C361.085 20.671 360.536 20.8983 360.115 21.2553C359.994 21.3609 359.877 21.4774 359.779 21.6107C359.471 21.996 359.285 22.4678 359.285 22.9771C359.285 24.2607 360.339 25.2345 361.667 25.2345C361.673 25.2345 361.68 25.234 361.686 25.2339C361.695 25.2341 361.704 25.2345 361.713 25.2345C362.079 25.2345 362.4 25.1462 362.812 24.9691L362.781 23.9507C362.766 23.9657 362.797 23.9796 362.781 23.9937V23.9507Z" fill="#2B2B2B"/>
        <path d="M370.992 21.2651L369.955 23.7299L368.765 20.808H367.803L369.68 25.2791H370.184L372.153 20.808H371.192L370.992 21.2651Z" fill="#2B2B2B"/>
        <path d="M372.52 22.7558V25.1465H374.993H375.039V24.4379H374.261H373.436V23.6413V23.243H374.993V22.4902H373.436V21.5607H375.039V20.808H372.52V22.7558Z" fill="#2B2B2B"/>
        <path d="M351.821 20.809H350.539V25.1474H351.821C352.508 25.1474 353.012 24.9702 353.424 24.6603C353.927 24.2619 354.248 23.6423 354.248 22.9784C354.248 21.6943 353.286 20.809 351.821 20.809ZM352.874 24.085C352.6 24.3062 352.233 24.4389 351.684 24.4389H351.409V21.5616H351.638C352.187 21.5616 352.554 21.6501 352.829 21.9156C353.149 22.181 353.332 22.5797 353.332 22.9782C353.378 23.3766 353.195 23.8191 352.874 24.085Z" fill="#2B2B2B"/>
        <path d="M355.531 20.8079H354.66V25.1462H355.531V20.8079Z" fill="#2B2B2B"/>
        <path d="M357.729 22.4908C357.179 22.3137 357.042 22.1808 357.042 21.9596C357.042 21.6939 357.317 21.4726 357.683 21.4726C357.958 21.4726 358.187 21.5612 358.416 21.8268L358.874 21.2514C358.507 20.9414 358.049 20.7645 357.546 20.7645C356.767 20.7645 356.126 21.2958 356.126 22.0038C356.126 22.6237 356.401 22.8893 357.225 23.1992C357.591 23.3318 357.729 23.3762 357.821 23.4647C358.003 23.5531 358.095 23.7304 358.095 23.9072C358.095 24.2614 357.821 24.5271 357.408 24.5271C356.996 24.5271 356.63 24.3058 356.446 23.9516L355.897 24.4829C356.309 25.0583 356.813 25.3239 357.454 25.3239C358.37 25.3239 359.011 24.7484 359.011 23.9072C359.011 23.1549 358.736 22.845 357.729 22.4908Z" fill="#2B2B2B"/>
        <path d="M377.512 23.3312C378.199 23.1986 378.566 22.7558 378.566 22.0919C378.566 21.2952 377.97 20.808 376.963 20.808H375.635V25.1465H376.505V23.4198H376.642L377.878 25.1465H378.932L377.512 23.3312ZM376.779 22.8H376.505V21.4721H376.779C377.329 21.4721 377.65 21.6933 377.65 22.1363C377.65 22.5788 377.329 22.8 376.779 22.8Z" fill="#2B2B2B"/>
    </g>
    <g clip-path="url(#clip4_2493_5696)">
        <path d="M391.771 14.7446C391.771 13.2288 393.014 12 394.547 12H422.309C423.842 12 425.085 13.2288 425.085 14.7446V31.2124C425.085 32.7282 423.842 33.957 422.309 33.957H394.547C393.014 33.957 391.771 32.7282 391.771 31.2124V14.7446Z" fill="#D4DEF7"/>
        <path d="M416.356 18.7729L415.711 20.1777H417.004L416.356 18.7729ZM408.917 19.6434C409.039 19.5864 409.11 19.4624 409.11 19.3084C409.11 19.1575 409.035 19.0482 408.914 18.9969C408.803 18.9399 408.633 18.9333 408.47 18.9333H407.316V19.7161H408.454C408.636 19.7161 408.789 19.7137 408.917 19.6434ZM394.141 18.7729L393.503 20.1777H394.782L394.141 18.7729ZM423.812 27.7727H422.004V27.0168H423.805C423.983 27.0168 424.108 26.9958 424.184 26.9295C424.255 26.8704 424.295 26.787 424.294 26.6997C424.294 26.597 424.249 26.5154 424.18 26.4666C424.112 26.4128 424.013 26.3883 423.85 26.3883C422.971 26.3615 421.874 26.4127 421.874 25.2973C421.874 24.7861 422.235 24.248 423.217 24.248H425.083V23.5467H423.35C422.827 23.5467 422.447 23.6594 422.177 23.8346V23.5467H419.614C419.204 23.5467 418.723 23.6381 418.495 23.8346V23.5467H413.917V23.8346C413.553 23.5982 412.938 23.5467 412.654 23.5467H409.634V23.8346C409.346 23.5835 408.705 23.5467 408.315 23.5467H404.935L404.162 24.2995L403.437 23.5467H398.389V28.4654H403.342L404.139 27.7005L404.89 28.4654L407.943 28.4678V27.3107H408.243C408.648 27.3166 409.126 27.3018 409.548 27.1379V28.4652H412.066V27.1832H412.187C412.342 27.1832 412.358 27.189 412.358 27.3284V28.4649H420.008C420.494 28.4649 421.002 28.3532 421.283 28.1501V28.4649H423.709C424.214 28.4649 424.707 28.4013 425.083 28.2383V27.322C424.855 27.6212 424.412 27.7729 423.812 27.7729L423.812 27.7727ZM408.283 26.6113H407.115V27.7936H405.294L404.141 26.6268L402.943 27.7936H399.233V24.2688H403L404.152 25.4242L405.343 24.2688H408.336C409.079 24.2688 409.914 24.4539 409.914 25.43C409.914 26.4092 409.102 26.6113 408.283 26.6113ZM413.902 26.4515C414.034 26.6235 414.054 26.7841 414.057 27.0948V27.7936H413.117V27.3526C413.117 27.1406 413.14 26.8266 412.966 26.6627C412.829 26.5365 412.62 26.5063 412.279 26.5063H411.278V27.7936H410.337V24.2688H412.499C412.973 24.2688 413.318 24.2878 413.626 24.4351C413.921 24.5957 414.107 24.8158 414.107 25.2179C414.107 25.7804 413.69 26.0674 413.444 26.1556C413.652 26.2248 413.822 26.3488 413.902 26.4515ZM417.771 24.9978H415.578V25.6385H417.717V26.3577H415.578V27.059L417.771 27.0622V27.7936H414.645V24.2688H417.771V24.9978ZM420.177 27.7935H418.353V27.0377H420.17C420.348 27.0377 420.474 27.0165 420.553 26.9503C420.617 26.8959 420.663 26.8166 420.663 26.7206C420.663 26.6178 420.613 26.5363 420.549 26.4874C420.477 26.4336 420.378 26.4093 420.215 26.4093C419.34 26.3823 418.243 26.4335 418.243 25.3182C418.243 24.807 418.6 24.2688 419.582 24.2688H421.459V25.0189H419.741C419.571 25.0189 419.46 25.0248 419.366 25.0828C419.263 25.1399 419.225 25.2245 419.225 25.3362C419.225 25.4692 419.313 25.5597 419.43 25.5988C419.529 25.6297 419.635 25.6387 419.795 25.6387L420.299 25.6511C420.807 25.6621 421.156 25.7413 421.368 25.9345C421.551 26.1042 421.649 26.3185 421.649 26.6812C421.649 27.4395 421.122 27.7935 420.177 27.7935ZM412.914 25.0546C412.801 24.9941 412.634 24.9909 412.467 24.9909H411.314V25.7825H412.452C412.634 25.7825 412.789 25.7767 412.914 25.7099C413.035 25.6439 413.108 25.5223 413.108 25.3716C413.108 25.2208 413.035 25.1117 412.914 25.0546ZM423.378 24.9909C423.207 24.9909 423.094 24.9967 422.999 25.0545C422.9 25.1117 422.862 25.1963 422.862 25.3082C422.862 25.441 422.945 25.5316 423.067 25.5707C423.166 25.6016 423.272 25.6107 423.428 25.6107L423.935 25.6228C424.447 25.6342 424.789 25.7135 424.998 25.9067C425.036 25.9335 425.059 25.9636 425.085 25.9938V24.9909H423.378L423.378 24.9909ZM408.316 24.9909H407.094V25.8886H408.305C408.664 25.8886 408.888 25.728 408.888 25.4231C408.888 25.1148 408.654 24.9909 408.316 24.9909ZM400.166 24.9909V25.6317H402.222V26.3509H400.166V27.0521H402.468L403.538 26.0181L402.514 24.9909H400.166ZM406.178 27.4558V24.6299L404.74 26.0201L406.178 27.4558ZM400.244 21.7966V22.4039H408.069L408.065 21.1191H408.216C408.322 21.1224 408.353 21.1312 408.353 21.2886V22.404H412.4V22.1048C412.727 22.2621 413.234 22.404 413.902 22.404H415.605L415.969 21.6212H416.777L417.133 22.404H420.414V21.6605L420.911 22.4039H423.54V17.4893H420.938V18.0697L420.574 17.4893H417.904V18.0697L417.569 17.4893H413.963C413.359 17.4893 412.829 17.565 412.4 17.7762V17.4893H409.911V17.7762C409.639 17.5585 409.267 17.4893 408.854 17.4893H399.762L399.152 18.7587L398.525 17.4893H395.662V18.0697L395.347 17.4893H392.905L391.771 19.8261V21.6953L393.448 18.1713H394.839L396.432 21.5077V18.1713H397.96L399.186 20.5619L400.312 18.1713H401.871V21.6953H400.911L400.908 18.9353L399.55 21.6953H398.728L397.366 18.9329V21.6953H395.461L395.101 20.9092H393.151L392.788 21.6953H391.771V22.4042H393.371L393.732 21.6214H394.539L394.899 22.4042H398.048V21.8057L398.329 22.4067H399.963L400.244 21.7967L400.244 21.7966ZM412.574 18.582C412.876 18.3008 413.351 18.1711 413.996 18.1711H414.903V18.9262H414.015C413.673 18.9262 413.48 18.9719 413.294 19.135C413.135 19.2833 413.025 19.5638 413.025 19.9332C413.025 20.3107 413.109 20.5829 413.283 20.7607C413.427 20.9002 413.689 20.9425 413.935 20.9425H414.356L415.676 18.1712H417.079L418.665 21.5043V18.1712H420.091L421.737 20.6255V18.1712H422.696V21.6951H421.369L419.594 19.0502V21.6951H417.687L417.322 20.9091H415.377L415.023 21.6951H413.927C413.472 21.6951 412.896 21.6046 412.569 21.3053C412.24 21.0061 412.069 20.6008 412.069 19.9601C412.069 19.4374 412.171 18.9596 412.574 18.582ZM410.648 18.1711H411.603V21.6951H410.648V18.1711ZM406.339 18.1711H408.493C408.972 18.1711 409.325 18.1826 409.627 18.3399C409.924 18.4973 410.101 18.7271 410.101 19.1201C410.101 19.682 409.684 19.9723 409.441 20.0595C409.646 20.1297 409.821 20.2536 409.905 20.3562C410.037 20.5315 410.06 20.6881 410.06 21.0028V21.6951H409.115L409.112 21.2507C409.112 21.0386 409.134 20.7336 408.964 20.5642C408.827 20.4403 408.618 20.4133 408.281 20.4133H407.276V21.6951H406.339L406.339 18.1711ZM402.564 18.1711H405.692V18.905H403.5V19.5402H405.64V20.2625H403.5V20.9663H405.692V21.6951H402.564V18.1711Z" fill="#2557D6"/>
    </g>
    <defs>
        <clipPath id="clip0_2493_5696">
            <rect width="33.3141" height="21.957" fill="white" transform="translate(261.071 12)"/>
        </clipPath>
        <clipPath id="clip1_2493_5696">
            <rect width="34.0712" height="21.957" fill="white" transform="translate(217 12)"/>
        </clipPath>
        <clipPath id="clip2_2493_5696">
            <rect width="33.3141" height="21.957" fill="white" transform="translate(304.385 12)"/>
        </clipPath>
        <clipPath id="clip3_2493_5696">
            <rect width="34.0712" height="21.957" fill="white" transform="translate(347.699 12)"/>
        </clipPath>
        <clipPath id="clip4_2493_5696">
            <rect width="33.3141" height="21.957" fill="white" transform="translate(391.771 12)"/>
        </clipPath>
    </defs>
</svg>
